<?xml version="1.0" encoding="utf-8"?>
<!-- Generator: Adobe Illustrator 22.1.0, SVG Export Plug-In . SVG Version: 6.00 Build 0)  -->
<svg version="1.1" id="Слой_1" xmlns="http://www.w3.org/2000/svg" xmlns:xlink="http://www.w3.org/1999/xlink" x="0px" y="0px"
	 viewBox="0 0 90 90" style="enable-background:new 0 0 90 90;" xml:space="preserve">
<style type="text/css">
	.st0{fill:#C49A6C;}
</style>
<g>
	<path class="st0" d="M13.1,67.7l1.4,14.8c0,1.5,1.2,2.7,2.7,2.7H25c0.8,0,1.5-0.3,2-0.9c0.5-0.6,0.7-1.5,0.6-2.3L24,67.8h0.7
		c1.5,0,2.9,0.1,4.4,0.3c4.8,10.4,15.2,17,26.6,17c0.9,0,1.8,0,2.7-0.1c14.1-1.4,25.3-12.7,26.5-26.8c0.5-6.3-1-12.6-4.4-17.9
		c-0.9-1.5-0.8-3.4,0.3-4.7c3.3-4,4.8-9.3,4-14.5c-1.5-10.2-11-17.3-21.2-15.8C59,6,54.9,8.4,51.9,12c-2.3,3-6.2,4.3-9.8,3.4
		c-3.1-0.9-6.3-1.1-9.5-0.7c-10.7,1.4-19.2,9.8-20.7,20.5c-0.7,4.8,0.1,9.6,2.3,14C9,49.2,4.9,53.5,5,58.6
		C5.1,63.3,8.5,67.1,13.1,67.7z M15.7,65.2V51.8h2.7v13.3H15.7z M25,82.5l-7.8-0.1l-1.4-14.5h5.5L25,82.5z M21,65.2V51.8h3.7
		c3.9,0,7.7-0.6,11.4-1.8l6.2-2.1v21.2L36.1,67c-3.7-1.2-7.5-1.8-11.4-1.8H21z M49,45.7v25.6L45,70V47L49,45.7z M14.5,35.6
		c1.6-11.7,12.4-19.8,24-18.2c0.9,0.1,1.9,0.3,2.8,0.6C46,19.1,51,17.5,54,13.7c5.6-6.8,15.7-7.9,22.5-2.3s7.9,15.7,2.3,22.5
		c-1.8,2.2-2,5.4-0.5,7.8c3,4.9,4.4,10.6,4,16.3c-1.2,14.7-14,25.6-28.7,24.4c-8.9-0.7-16.9-5.8-21.2-13.7c1,0.2,1.9,0.5,2.8,0.8
		l14.7,4.9c0.1,0,0.3,0.1,0.4,0.1c0.7,0,1.3-0.6,1.3-1.3v-6.7c2.9,0,5.3-2.4,5.3-5.3v-5.3c0-2.9-2.4-5.3-5.3-5.3v-6.7
		c0-0.7-0.6-1.3-1.3-1.3c-0.1,0-0.3,0-0.4,0.1l-14.7,4.9c-3.4,1.1-7,1.7-10.5,1.7h-7.5C14.8,45.1,13.9,40.3,14.5,35.6z M51.7,53.2
		c1.5,0,2.7,1.2,2.7,2.7v5.3c0,1.5-1.2,2.7-2.7,2.7V53.2z M13,52V65c-3.6-0.7-5.9-4.3-5.2-7.9C8.3,54.5,10.4,52.5,13,52z"/>
	<rect x="23.7" y="59.8" class="st0" width="5.3" height="2.7"/>
	<rect x="23.7" y="54.5" class="st0" width="5.3" height="2.7"/>
	<path class="st0" d="M63,30.3c0.4,0.2,1,0.2,1.4-0.1l8-5.3c0.6-0.4,0.8-1.2,0.4-1.8c-0.1-0.1-0.2-0.3-0.4-0.4l-8-5.3
		c-0.6-0.4-1.4-0.2-1.8,0.4c-0.1,0.2-0.2,0.5-0.2,0.7v10.7C62.3,29.7,62.6,30.1,63,30.3z M65,21l4.3,2.8L65,26.7V21z"/>
	<path class="st0" d="M66.3,35.8c6.6,0,12-5.4,12-12s-5.4-12-12-12s-12,5.4-12,12C54.3,30.5,59.7,35.8,66.3,35.8z M66.3,14.5
		c5.2,0,9.3,4.2,9.3,9.3s-4.2,9.3-9.3,9.3S57,29,57,23.8C57,18.7,61.2,14.5,66.3,14.5z"/>
	<path class="st0" d="M21,45.2h5.3c0.7,0,1.3-0.6,1.3-1.3h12c2.2,0,4-1.8,4-4v-6.7c0-2.2-1.8-4-4-4h-1.3c-0.7,0-1.3-0.6-1.3-1.3v-4
		c0-2.2-1.8-4-4-4s-4,1.8-4,4v4c0,0.7-0.6,1.3-1.3,1.3c0-0.7-0.6-1.3-1.3-1.3H21c-0.7,0-1.3,0.6-1.3,1.3v14.7
		C19.7,44.6,20.3,45.2,21,45.2z M31.7,27.8v-4c0-0.7,0.6-1.3,1.3-1.3s1.3,0.6,1.3,1.3v4c0,2.2,1.8,4,4,4h1.3c0.7,0,1.3,0.6,1.3,1.3
		v6.7c0,0.7-0.6,1.3-1.3,1.3h-12v-9.3C29.9,31.8,31.7,30,31.7,27.8z M22.3,30.5H25v12h-2.7V30.5z"/>
	<path class="st0" d="M72.9,52.5l-1.4,1l-1.4-1c-1.6-1.1-3.7-0.8-5,0.5l-0.6,0.6c-1.6,1.6-1.6,4.1,0,5.7l6.1,6.1
		c0.5,0.5,1.4,0.5,1.9,0l6.1-6.1c1.6-1.6,1.6-4.1,0-5.7L77.9,53C76.6,51.7,74.5,51.4,72.9,52.5z M76,54.9l0.6,0.6
		c0.5,0.5,0.5,1.4,0,1.9c0,0,0,0,0,0l-5.2,5.2l-5.2-5.2c-0.5-0.5-0.5-1.4,0-1.9l0.6-0.6c0.4-0.4,1.2-0.5,1.7-0.2l2.2,1.5
		c0.4,0.3,1,0.3,1.5,0l2.2-1.5C74.9,54.4,75.6,54.4,76,54.9L76,54.9z"/>
	<rect x="54.9" y="42.5" transform="matrix(0.2428 -0.9701 0.9701 0.2428 1.1379 89.125)" class="st0" width="5.5" height="2.7"/>
	<rect x="59.3" y="46.5" transform="matrix(0.8944 -0.4472 0.4472 0.8944 -14.8111 32.9214)" class="st0" width="6" height="2.7"/>
	
		<rect x="56.3" y="71.7" transform="matrix(0.9701 -0.2425 0.2425 0.9701 -16.3446 16.2075)" class="st0" width="2.7" height="5.5"/>
	<rect x="61" y="67.5" transform="matrix(0.4472 -0.8944 0.8944 0.4472 -28.595 94.7095)" class="st0" width="2.7" height="6"/>
	<path class="st0" d="M6.3,41.2H9c0-18.1,10.7-29.3,28-29.3V9.2C18.1,9.2,6.3,21.4,6.3,41.2z"/>
</g>
</svg>
