<?xml version="1.0" encoding="utf-8"?>
<!-- Generator: Adobe Illustrator 22.1.0, SVG Export Plug-In . SVG Version: 6.00 Build 0)  -->
<svg version="1.1" id="Слой_1" xmlns="http://www.w3.org/2000/svg" xmlns:xlink="http://www.w3.org/1999/xlink" x="0px" y="0px"
	 viewBox="0 0 90 90" style="enable-background:new 0 0 90 90;" xml:space="preserve">
<style type="text/css">
	.st0{fill:#C49A6C;}
</style>
<g>
	<path class="st0" d="M1070.7,2450h-20v-26.7c0-0.7-0.6-1.3-1.3-1.3h-10.8c1.8-1.8,2.8-4.2,2.8-6.7c0-0.7-0.6-1.3-1.3-1.3
		c-3.3,0-6.3,1.7-8,4.6c-1.7-2.8-4.7-4.5-8-4.6c-0.7,0-1.3,0.6-1.3,1.3c0,2.5,1,4.9,2.8,6.7h-10.8c-0.7,0-1.3,0.6-1.3,1.3v26.7h-20
		c-0.7,0-1.3,0.6-1.3,1.3v5.3c0,0.7,0.6,1.3,1.3,1.3h43.8l-8,2.7h-19.8c-0.4,0-0.7,0.1-0.9,0.4l-5.7,5.7l-1.7-1.7
		c-0.5-0.5-1.4-0.5-1.9,0l-6.7,6.7c-0.5,0.5-0.5,1.4,0,1.9l20,20c0.5,0.5,1.4,0.5,1.9,0l6.7-6.7c0.5-0.5,0.5-1.4,0-1.9l-0.2-0.2
		l7.7-5.5h26.2c0.3,0,0.7-0.1,0.9-0.4l14.5-13.3c2.2-2,2.6-5.3,0.9-7.8c0.6-0.1,1-0.7,1-1.3v-5.3
		C1072,2450.6,1071.4,2450,1070.7,2450z M1038.5,2416.8c-0.6,2.5-2.5,4.4-5,5C1034.1,2419.3,1036,2417.4,1038.5,2416.8z
		 M1030.5,2421.8c-2.5-0.6-4.4-2.5-5-5C1028,2417.4,1029.9,2419.3,1030.5,2421.8L1030.5,2421.8z M1016,2424.7h32v25.3h-14.3
		l11.4-15.2c0.4-0.5,0.4-1.1,0-1.6l-4-5.3c-0.3-0.3-0.6-0.5-1.1-0.5h-16c-0.4,0-0.8,0.2-1.1,0.5l-4,5.3c-0.4,0.5-0.4,1.1,0,1.6
		l11.4,15.2H1016V2424.7z M1035.4,2435.3l-3.4,9.4l-3.4-9.4H1035.4z M1029.9,2432.7l2.1-2.1l2.1,2.1H1029.9z M1038.3,2435.3h3.1
		l-6,7.9L1038.3,2435.3z M1037.9,2432.7l-2.7-2.7h4.1l2,2.7H1037.9z M1026.1,2432.7h-3.4l2-2.7h4.1L1026.1,2432.7z M1025.7,2435.3
		l2.9,7.9l-6-7.9H1025.7z M994.7,2452.7h74.7v2.7h-74.7V2452.7z M1060.5,2458l-9,8h-4.7c2.6-1.4,3.6-4.6,2.2-7.2
		c-0.1-0.3-0.3-0.5-0.5-0.8H1060.5z M1013.3,2490.8l-18.1-18.1l4.8-4.8l18.1,18.1L1013.3,2490.8z M1068.3,2463.7l-14.1,12.9H1028
		c-0.3,0-0.5,0.1-0.8,0.2l-8.4,6l-14.3-14.3l5.3-5.3h19.4c0.1,0,0.3,0,0.4-0.1l13.6-4.5c1.4-0.5,2.9,0.3,3.4,1.7
		c0.5,1.4-0.3,2.9-1.7,3.4c-0.1,0-0.1,0-0.2,0l-7.8,2.1h-3.8v2.7h18.7c0.3,0,0.6-0.1,0.9-0.3l10.7-9.5c0.6-0.5,1.4-0.8,2.2-0.8h0.3
		c1.8,0,3.3,1.5,3.3,3.3C1069.3,2462.2,1069,2463.1,1068.3,2463.7z"/>
	
		<rect x="999.3" y="2470.5" transform="matrix(0.7071 -0.7071 0.7071 0.7071 -1455.8171 1431.9999)" class="st0" width="2.7" height="5.7"/>
	<rect x="1054.7" y="2419.3" class="st0" width="2.7" height="2.7"/>
	<rect x="1057.3" y="2416.7" class="st0" width="2.7" height="2.7"/>
	<rect x="1060" y="2419.3" class="st0" width="2.7" height="2.7"/>
	<rect x="1057.3" y="2422" class="st0" width="2.7" height="2.7"/>
	<rect x="1069.3" y="2415.3" class="st0" width="2.7" height="2.7"/>
	<rect x="1058.7" y="2430" class="st0" width="2.7" height="2.7"/>
	<rect x="1004" y="2428.7" class="st0" width="2.7" height="2.7"/>
	<rect x="1004" y="2434" class="st0" width="2.7" height="2.7"/>
	<rect x="1006.7" y="2431.3" class="st0" width="2.7" height="2.7"/>
	<rect x="1001.3" y="2431.3" class="st0" width="2.7" height="2.7"/>
	<rect x="992" y="2422" class="st0" width="2.7" height="2.7"/>
	<rect x="1004" y="2415.3" class="st0" width="2.7" height="2.7"/>
</g>
<g>
	<path class="st0" d="M74.4,71c-3.6,0-4-1.6-4-2.4c5.1-2.1,8.1-7.2,8-12.7c0-0.3,0-0.8,0-0.9c0-6.7-5.3-12-12-12h-16
		c-0.8,0-1.3,0.5-1.3,1.3c0,3.1,1.2,6,3.2,8.1c-0.3,1.3-0.5,2.5-0.5,3.9c0,5.3,3.2,10.1,8,12.3c0,0.8-0.4,2.4-4,2.4
		c-3.7,0-6.7,2.9-6.7,6.7v6.7h2.7v-6.7c0-2.3,1.7-4,4-4c4.1,0,6.7-2,6.7-5.3v-0.7c0-0.5-0.4-1.1-0.9-1.2c-4.3-1.6-7.1-5.6-7.1-10.1
		c0-0.7,0-1.3,0.1-1.9c1.9,1.2,4.1,1.9,6.5,1.9h14.7c0,4.5-2.8,8.5-7.1,10c-0.5,0.1-0.9,0.7-0.9,1.2v0.8c0,3.3,2.5,5.3,6.7,5.3
		c2.3,0,4,1.7,4,4v6.7h2.7v-6.7C81.1,74,78.2,71,74.4,71z M61.1,53.7c-4.7,0-8.5-3.5-9.2-8h14.6c4.7,0,8.5,3.5,9.2,8H61.1z"/>
	<path class="st0" d="M79.8,12.3H53.1V9.6c0-2.9-2.4-5.3-5.3-5.3H10.3C7.4,4.3,5,6.7,5,9.6V39c0,5.6,2,9.6,6,12l1.3-2.3
		c-3.1-2-4.7-5.1-4.7-9.7V9.6C7.7,8.2,8.9,7,10.3,7h37.4c1.5,0,2.7,1.2,2.7,2.7V35c0,1.5-1.2,2.7-2.7,2.7H24c-4.1,0-7.7,3.1-8.3,7.2
		c0,0.3,0,0.5,0,0.8h2.7c0-0.1,0-0.4,0-0.5c0.4-2.8,2.8-4.8,5.6-4.8h23.8c2.9,0,5.3-2.4,5.3-5.3h16c3.7,0,6.7,2.9,6.7,6.7h2.7
		c0-5.2-4.1-9.3-9.3-9.3h-16V15h26.7c1.5,0,2.7,1.2,2.7,2.7v22.7c0.1,2.8-0.7,5.5-2.4,7.7l2,1.7c2.1-2.7,3.2-6,2.9-9.5V17.7
		C85.1,14.7,82.7,12.3,79.8,12.3z"/>
	<path class="st0" d="M38.4,72.4c-2.1,0-3.9-1.6-4-3.7c6.8-2.9,9.9-10.8,6.9-17.6c-2.9-6.8-10.8-9.9-17.6-6.9
		c-6.8,2.9-9.9,10.8-6.9,17.6c1.3,3.1,3.9,5.6,6.9,6.9c-0.1,2.1-1.9,3.7-4,3.7c-3.7,0-6.7,2.9-6.7,6.7v5.3h2.7v-5.3c0-2.3,1.7-4,4-4
		c3.7,0,6.7-2.9,6.7-6.7v-0.7c0-0.5-0.4-1.1-0.9-1.2c-3.7-1.3-6.5-4.7-7.1-8.7h4c0.3,0,0.5-0.1,0.8-0.3l3.2-2.1l3.2,2.1
		c0.3,0.1,0.5,0.3,0.8,0.3h9.2c-0.5,4-3.2,7.3-7.1,8.7c-0.5,0.1-0.9,0.7-0.9,1.2v0.7c0,3.7,2.9,6.7,6.7,6.7c2.3,0,4,1.7,4,4v5.3h2.7
		v-5.3C45,75.3,42.1,72.4,38.4,72.4z M27.2,52.6c-0.4-0.3-1.1-0.3-1.5,0L22,55h-3.5c0.7-5.9,6-10,11.9-9.2c4.8,0.7,8.7,4.4,9.2,9.2
		h-8.8L27.2,52.6z"/>
	<rect x="11.7" y="11" class="st0" width="28" height="2.7"/>
	<rect x="11.7" y="16.3" class="st0" width="8" height="2.7"/>
	<rect x="22.4" y="16.3" class="st0" width="20" height="2.7"/>
	<rect x="11.7" y="21.7" class="st0" width="2.7" height="2.7"/>
	<rect x="17" y="21.7" class="st0" width="10.7" height="2.7"/>
	<rect x="30.4" y="21.7" class="st0" width="12" height="2.7"/>
	<rect x="61.1" y="20.3" class="st0" width="18.7" height="2.7"/>
	<rect x="55.7" y="25.7" class="st0" width="9.3" height="2.7"/>
	<rect x="67.7" y="25.7" class="st0" width="12" height="2.7"/>
	<rect x="55.7" y="20.3" class="st0" width="2.7" height="2.7"/>
</g>
</svg>
