<?xml version="1.0" encoding="utf-8"?>
<!-- Generator: Adobe Illustrator 22.1.0, SVG Export Plug-In . SVG Version: 6.00 Build 0)  -->
<svg version="1.1" id="Слой_1" xmlns="http://www.w3.org/2000/svg" xmlns:xlink="http://www.w3.org/1999/xlink" x="0px" y="0px"
	 viewBox="0 0 200 60" style="enable-background:new 0 0 200 60;" xml:space="preserve">
<style type="text/css">
	.st0{clip-path:url(#SVGID_2_);fill:#414042;}
	.st1{clip-path:url(#SVGID_4_);fill:#414042;}
	.st2{clip-path:url(#SVGID_6_);fill:#414042;}
	.st3{clip-path:url(#SVGID_8_);fill:#414042;}
	.st4{clip-path:url(#SVGID_10_);fill:#414042;}
	.st5{clip-path:url(#SVGID_12_);fill:#414042;}
	.st6{fill:#414042;}
</style>
<g>
	<g>
		<g>
			<g>
				<defs>
					
						<rect id="SVGID_1_" x="0.8" y="39.1" transform="matrix(0.8742 -0.4855 0.4855 0.8742 -18.3123 8.7959)" width="14" height="1.3"/>
				</defs>
				<use xlink:href="#SVGID_1_"  style="overflow:visible;fill:#414042;"/>
				<clipPath id="SVGID_2_">
					<use xlink:href="#SVGID_1_"  style="overflow:visible;"/>
				</clipPath>
				<rect x="1.4" y="35.8" class="st0" width="12.9" height="7.9"/>
			</g>
		</g>
		<g>
			<g>
				<defs>
					
						<rect id="SVGID_3_" x="43.8" y="32.8" transform="matrix(0.4856 -0.8742 0.8742 0.4856 -11.8989 59.2928)" width="1.3" height="14"/>
				</defs>
				<use xlink:href="#SVGID_3_"  style="overflow:visible;fill:#414042;"/>
				<clipPath id="SVGID_4_">
					<use xlink:href="#SVGID_3_"  style="overflow:visible;"/>
				</clipPath>
				<rect x="38" y="35.8" class="st1" width="12.9" height="7.9"/>
			</g>
		</g>
		<g>
			<g>
				<defs>
					<path id="SVGID_5_" d="M26.1,59l-25-14.5v-29L26.1,1l25.1,14.5v29L26.1,59z M2.4,43.6l23.7,13.7l23.7-13.7V16.2L26.1,2.5
						L2.4,16.2V43.6z"/>
				</defs>
				<use xlink:href="#SVGID_5_"  style="overflow:visible;fill:#414042;"/>
				<clipPath id="SVGID_6_">
					<use xlink:href="#SVGID_5_"  style="overflow:visible;"/>
				</clipPath>
				<rect x="1.1" y="1" class="st2" width="50.2" height="58"/>
			</g>
		</g>
		<g>
			<g>
				<defs>
					<polygon id="SVGID_7_" points="26.1,44.7 25.8,44.5 1.4,30.2 2,29 26.1,43.1 50.3,29 50.9,30.2 					"/>
				</defs>
				<use xlink:href="#SVGID_7_"  style="overflow:visible;fill:#414042;"/>
				<clipPath id="SVGID_8_">
					<use xlink:href="#SVGID_7_"  style="overflow:visible;"/>
				</clipPath>
				<rect x="1.4" y="29" class="st3" width="49.5" height="15.6"/>
			</g>
		</g>
		<g>
			<g>
				<defs>
					<polygon id="SVGID_9_" points="50.3,30.2 26.1,16.8 2,30.2 1.4,29 26.1,15.3 50.9,29 					"/>
				</defs>
				<use xlink:href="#SVGID_9_"  style="overflow:visible;fill:#414042;"/>
				<clipPath id="SVGID_10_">
					<use xlink:href="#SVGID_9_"  style="overflow:visible;"/>
				</clipPath>
				<rect x="1.4" y="15.3" class="st4" width="49.5" height="14.9"/>
			</g>
		</g>
		<g>
			<g>
				<defs>
					<polygon id="SVGID_11_" points="26.1,30.4 1.4,16.7 2,15.5 26.1,28.8 50.3,15.5 50.9,16.7 					"/>
				</defs>
				<use xlink:href="#SVGID_11_"  style="overflow:visible;fill:#414042;"/>
				<clipPath id="SVGID_12_">
					<use xlink:href="#SVGID_11_"  style="overflow:visible;"/>
				</clipPath>
				<rect x="1.4" y="15.5" class="st5" width="49.5" height="14.9"/>
			</g>
		</g>
	</g>
	<g>
		<path class="st6" d="M68.3,29.5c-1.2-0.6-2.1-1.5-2.8-2.7c-0.6-1.2-1.1-2.5-1.1-3.9s0.3-2.7,1.1-3.9c0.6-1.2,1.6-2,2.8-2.7
			c1.2-0.6,2.6-1,4.1-1c1.5,0,2.8,0.3,4.1,1c1.2,0.6,2.1,1.5,2.8,2.7c0.6,1.2,1.1,2.5,1.1,3.9c0,1.4-0.3,2.7-1.1,3.9
			c-0.6,1.2-1.6,2-2.8,2.7c-1.2,0.6-2.6,1-4.1,1C70.9,30.5,69.5,30.2,68.3,29.5z M75,27.5c0.8-0.4,1.4-1.1,1.8-1.8
			c0.4-0.8,0.6-1.7,0.6-2.7c0-1-0.2-1.8-0.6-2.7c-0.4-0.8-1.1-1.4-1.8-1.8c-0.8-0.4-1.6-0.6-2.7-0.6s-1.8,0.2-2.7,0.6
			s-1.4,1.1-1.8,1.8c-0.4,0.8-0.6,1.7-0.6,2.7c0,1,0.2,1.8,0.6,2.7c0.4,0.8,1.1,1.4,1.8,1.8c0.8,0.4,1.6,0.6,2.7,0.6
			S74.2,27.9,75,27.5z"/>
		<path class="st6" d="M103.1,30.3l-3-4.3c-0.1,0-0.3,0-0.5,0h-3.3v4.3h-2.7V15.7h6c1.3,0,2.4,0.2,3.3,0.6c1,0.4,1.6,1,2.1,1.8
			c0.5,0.8,0.8,1.7,0.8,2.8s-0.2,2-0.8,2.8c-0.5,0.8-1.3,1.4-2.4,1.8l3.3,4.8h-2.9V30.3z M102.1,18.7c-0.6-0.5-1.5-0.8-2.7-0.8h-3.2
			v5.8h3.2c1.2,0,2-0.2,2.7-0.8c0.6-0.5,1-1.2,1-2.1C103.1,19.9,102.8,19.2,102.1,18.7z"/>
		<path class="st6" d="M119.3,15.7h2.7v14.6h-2.7V15.7z"/>
		<path class="st6" d="M147.4,28v2.3h-11V15.7H147v2.3h-7.8v3.8h7.1V24h-7.1V28L147.4,28z"/>
		<path class="st6" d="M173.9,15.7v14.6h-2.3l-8.1-9.9v9.9h-2.7V15.7h2.3l8.1,9.9v-9.9H173.9z"/>
		<path class="st6" d="M191.3,17.9h-4.8v-2.3h12.5v2.3H194v12.4h-2.7V17.9z"/>
	</g>
	<g>
		<g>
			<path class="st6" d="M68.6,42h0.4v1.3c-0.2,0.1-0.3,0.2-0.6,0.3c-0.2,0.1-0.4,0.1-0.8,0.1c-0.3,0-0.6-0.1-1-0.2
				c-0.3-0.1-0.5-0.3-0.6-0.6c-0.1-0.3-0.2-0.5-0.2-0.9c0-0.3,0.1-0.6,0.2-0.9s0.4-0.4,0.6-0.6c0.3-0.1,0.6-0.2,1-0.2
				c0.3,0,0.5,0,0.8,0.1s0.4,0.2,0.5,0.4l-0.3,0.3c-0.3-0.2-0.6-0.4-1-0.4c-0.2,0-0.5,0.1-0.8,0.2c-0.2,0.1-0.3,0.3-0.5,0.4
				c-0.1,0.2-0.2,0.4-0.2,0.6c0,0.2,0.1,0.4,0.2,0.6c0.1,0.2,0.3,0.3,0.5,0.4c0.2,0.1,0.4,0.2,0.8,0.2c0.3,0,0.5-0.1,0.8-0.2V42
				H68.6z"/>
			<path class="st6" d="M76.6,43.7l-0.8-1.1c-0.1,0-0.2,0-0.2,0h-0.9v1.1h-0.5v-3.4h1.3c0.4,0,0.8,0.1,1.1,0.3
				c0.2,0.2,0.4,0.5,0.4,0.9c0,0.2-0.1,0.5-0.2,0.6c-0.1,0.2-0.3,0.3-0.5,0.4l0.9,1.2L76.6,43.7z M76.3,42.1
				c0.2-0.1,0.2-0.3,0.2-0.5s-0.1-0.4-0.2-0.5c-0.2-0.1-0.4-0.2-0.8-0.2h-0.8v1.5h0.9C75.9,42.3,76.2,42.2,76.3,42.1z"/>
			<path class="st6" d="M82.7,43.6c-0.3-0.1-0.5-0.3-0.6-0.6c-0.1-0.3-0.2-0.5-0.2-0.9c0-0.3,0.1-0.6,0.2-0.9
				c0.1-0.2,0.4-0.4,0.6-0.6c0.3-0.1,0.5-0.2,1-0.2c0.3,0,0.6,0.1,1,0.2c0.3,0.1,0.5,0.3,0.6,0.6c0.1,0.2,0.2,0.5,0.2,0.9
				c0,0.3-0.1,0.6-0.2,0.9c-0.1,0.2-0.3,0.4-0.6,0.6c-0.3,0.1-0.5,0.2-1,0.2C83.2,43.8,82.9,43.7,82.7,43.6z M84.3,43.2
				c0.2-0.1,0.3-0.3,0.4-0.4c0.1-0.2,0.2-0.4,0.2-0.6c0-0.2-0.1-0.4-0.2-0.6s-0.3-0.3-0.4-0.4c-0.2-0.1-0.4-0.2-0.6-0.2
				S83.2,40.9,83,41s-0.3,0.3-0.4,0.4c-0.3,0.1-0.3,0.3-0.3,0.5c0,0.2,0.1,0.4,0.2,0.6c0.1,0.2,0.3,0.3,0.4,0.4
				c0.1,0.1,0.4,0.2,0.6,0.2C83.9,43.4,84.1,43.3,84.3,43.2z"/>
			<path class="st6" d="M90.8,43.4c-0.2-0.2-0.4-0.6-0.4-1.2v-1.9h0.5v1.9c0,0.8,0.3,1.1,1,1.1c0.3,0,0.5-0.1,0.8-0.3
				c0.2-0.2,0.2-0.4,0.2-0.9v-1.9h0.4v1.9c0,0.5-0.1,0.9-0.4,1.2c-0.2,0.2-0.6,0.4-1.1,0.4C91.3,43.8,91,43.6,90.8,43.4z"/>
			<path class="st6" d="M100.9,40.6c0.2,0.2,0.4,0.5,0.4,0.9c0,0.3-0.1,0.6-0.4,0.9c-0.2,0.2-0.6,0.3-1.1,0.3h-0.9v1.1h-0.5v-3.4
				h1.3C100.2,40.3,100.6,40.4,100.9,40.6z M100.5,42.1c0.2-0.1,0.2-0.3,0.2-0.5s-0.1-0.4-0.2-0.5c-0.2-0.1-0.4-0.2-0.8-0.2h-0.9
				v1.5h0.9C100.1,42.3,100.3,42.2,100.5,42.1z"/>
			<path class="st6" d="M112.4,43.6c-0.3-0.1-0.5-0.3-0.6-0.6c-0.1-0.3-0.2-0.5-0.2-0.9c0-0.3,0.1-0.6,0.2-0.9
				c0.1-0.2,0.4-0.4,0.6-0.6c0.3-0.1,0.5-0.2,1-0.2c0.3,0,0.6,0.1,1,0.2c0.3,0.1,0.5,0.3,0.6,0.6c0.1,0.2,0.2,0.5,0.2,0.9
				c0,0.3-0.1,0.6-0.2,0.9c-0.1,0.2-0.3,0.4-0.6,0.6c-0.3,0.1-0.5,0.2-1,0.2C113,43.8,112.7,43.7,112.4,43.6z M114,43.2
				c0.2-0.1,0.3-0.3,0.4-0.4c0.1-0.2,0.2-0.4,0.2-0.6c0-0.2-0.1-0.4-0.2-0.6s-0.3-0.3-0.4-0.4c-0.2-0.1-0.4-0.2-0.6-0.2
				c-0.2,0-0.4,0.1-0.6,0.2c-0.2,0.1-0.3,0.3-0.4,0.4c-0.1,0.1-0.2,0.4-0.2,0.6c0,0.2,0.1,0.4,0.2,0.6c0.1,0.2,0.3,0.3,0.4,0.4
				c0.2,0.1,0.4,0.2,0.6,0.2C113.5,43.4,113.9,43.3,114,43.2z"/>
			<path class="st6" d="M120.6,40.7v1.2h1.7v0.4h-1.7v1.4h-0.5v-3.4h2.5v0.4H120.6z"/>
			<path class="st6" d="M133.6,43.6c-0.3-0.1-0.5-0.3-0.6-0.6c-0.1-0.2-0.2-0.5-0.2-0.9c0-0.3,0.1-0.6,0.2-0.9
				c0.1-0.2,0.3-0.4,0.6-0.6c0.3-0.1,0.5-0.2,1-0.2c0.2,0,0.5,0,0.8,0.1s0.4,0.2,0.5,0.4l-0.3,0.3c-0.2-0.3-0.5-0.4-1-0.4
				c-0.2,0-0.5,0.1-0.6,0.2c-0.2,0.1-0.3,0.3-0.4,0.4c-0.1,0.1-0.2,0.4-0.2,0.6c0,0.2,0.1,0.4,0.2,0.6c0.1,0.2,0.3,0.3,0.4,0.4
				c0.2,0.1,0.4,0.2,0.6,0.2c0.4,0,0.8-0.1,1-0.4l0.3,0.3c-0.1,0.2-0.3,0.3-0.5,0.4c-0.2,0.1-0.4,0.1-0.8,0.1
				C134.2,43.8,133.8,43.7,133.6,43.6z"/>
			<path class="st6" d="M141.4,43.6c-0.3-0.1-0.5-0.3-0.6-0.6c-0.1-0.3-0.2-0.5-0.2-0.9c0-0.3,0.1-0.6,0.2-0.9
				c0.1-0.2,0.4-0.4,0.6-0.6c0.3-0.1,0.5-0.2,1-0.2c0.3,0,0.6,0.1,1,0.2c0.3,0.1,0.5,0.3,0.6,0.6c0.1,0.2,0.2,0.5,0.2,0.9
				c0,0.3-0.1,0.6-0.2,0.9c-0.1,0.2-0.3,0.4-0.6,0.6c-0.3,0.1-0.5,0.2-1,0.2C142,43.8,141.7,43.7,141.4,43.6z M143,43.2
				c0.2-0.1,0.3-0.3,0.4-0.4c0.1-0.2,0.2-0.4,0.2-0.6c0-0.2-0.1-0.4-0.2-0.6s-0.3-0.3-0.4-0.4c-0.2-0.1-0.4-0.2-0.6-0.2
				c-0.2,0-0.4,0.1-0.6,0.2c-0.2,0.1-0.3,0.3-0.4,0.4c-0.1,0.2-0.2,0.4-0.2,0.6c0,0.2,0.1,0.4,0.2,0.6c0.1,0.2,0.3,0.3,0.4,0.4
				c0.2,0.1,0.4,0.2,0.6,0.2S142.7,43.3,143,43.2z"/>
			<path class="st6" d="M152.3,43.7v-2.5l-1.3,2h-0.2l-1.3-2v2.5h-0.4v-3.4h0.4l1.4,2.4l1.4-2.4h0.4v3.4H152.3z"/>
			<path class="st6" d="M160.4,40.6c0.2,0.2,0.4,0.5,0.4,0.9c0,0.3-0.1,0.6-0.4,0.9c-0.2,0.2-0.6,0.3-1.1,0.3h-0.9v1.1h-0.5v-3.4
				h1.3C159.7,40.3,160.1,40.4,160.4,40.6z M160,42.1c0.2-0.1,0.2-0.3,0.2-0.5s-0.1-0.4-0.2-0.5c-0.2-0.1-0.4-0.2-0.8-0.2h-0.9v1.5
				h0.9C159.6,42.3,159.8,42.2,160,42.1z"/>
			<path class="st6" d="M167.9,42.9h-1.8l-0.4,0.9h-0.5l1.5-3.4h0.5l1.6,3.4h-0.5L167.9,42.9z M167.8,42.5l-0.8-1.7l-0.8,1.7H167.8z
				"/>
			<path class="st6" d="M176.5,40.3v3.4H176l-2-2.6v2.6h-0.4v-3.4h0.4l2,2.6v-2.6H176.5z"/>
			<path class="st6" d="M181.7,40.3h0.5v3.4h-0.5V40.3z"/>
			<path class="st6" d="M190,43.3v0.4h-2.5v-3.4h2.5v0.4h-1.9v1.1h1.7v0.4h-1.7v1.1H190z"/>
			<path class="st6" d="M195.3,43.7c-0.2-0.1-0.4-0.2-0.5-0.3l0.2-0.4c0.1,0.1,0.3,0.2,0.5,0.3c0.2,0.1,0.4,0.1,0.6,0.1
				c0.3,0,0.5,0,0.6-0.1c0.1-0.1,0.2-0.2,0.2-0.4c0-0.1,0-0.2-0.1-0.3c-0.1-0.1-0.2-0.1-0.3-0.2c-0.1,0-0.3-0.1-0.4-0.1
				c-0.2-0.1-0.4-0.1-0.6-0.2c-0.1-0.1-0.3-0.1-0.4-0.3c-0.1-0.2-0.2-0.3-0.2-0.5c0-0.2,0-0.3,0.1-0.5c0.1-0.1,0.2-0.2,0.4-0.3
				c0.2-0.1,0.4-0.1,0.8-0.1c0.2,0,0.4,0,0.6,0.1c0.2,0,0.3,0.1,0.5,0.2l-0.2,0.4c-0.1-0.1-0.3-0.1-0.4-0.2c-0.2,0-0.3-0.1-0.4-0.1
				c-0.3,0-0.5,0-0.6,0.1c-0.1,0.1-0.2,0.2-0.2,0.4c0,0.1,0,0.2,0.1,0.3c0.1,0.1,0.2,0.1,0.3,0.2c0.1,0,0.3,0.1,0.4,0.1
				c0.2,0.1,0.4,0.1,0.6,0.2c0.1,0.1,0.3,0.1,0.4,0.3c0.1,0.1,0.2,0.3,0.2,0.5c0,0.2,0,0.3-0.1,0.5c-0.1,0.1-0.2,0.2-0.4,0.3
				s-0.4,0.1-0.8,0.1C195.7,43.8,195.5,43.7,195.3,43.7z"/>
		</g>
	</g>
</g>
</svg>
