<?xml version="1.0" encoding="utf-8"?>
<!-- Generator: Adobe Illustrator 22.1.0, SVG Export Plug-In . SVG Version: 6.00 Build 0)  -->
<svg version="1.1" id="Слой_1" xmlns="http://www.w3.org/2000/svg" xmlns:xlink="http://www.w3.org/1999/xlink" x="0px" y="0px"
	 viewBox="0 0 200 120" style="enable-background:new 0 0 200 120;" xml:space="preserve">
<style type="text/css">
	.st0{fill:#FFFFFF;}
</style>
<g>
	<g>
		<path class="st0" d="M15.7,97.1H2.9c-1.4,0-2.5-1.1-2.5-2.5V81.9c0-1.4,1.1-2.5,2.5-2.5h12.7c1.4,0,2.5,1.1,2.5,2.5v12.7
			C18.1,96,17,97.1,15.7,97.1L15.7,97.1z"/>
		<path class="st0" d="M15.7,77.7H2.9c-1.4,0-2.5-1.1-2.5-2.5V62.5c0-1.4,1.1-2.5,2.5-2.5h12.7c1.4,0,2.5,1.1,2.5,2.5v12.7
			C18.1,76.6,17,77.7,15.7,77.7L15.7,77.7z"/>
		<path class="st0" d="M15.7,58.4H2.9c-1.4,0-2.5-1.1-2.5-2.5V43.2c0-1.4,1.1-2.5,2.5-2.5h12.7c1.4,0,2.5,1.1,2.5,2.5V56
			C18.1,57.3,17,58.4,15.7,58.4L15.7,58.4z"/>
		<path class="st0" d="M15.7,38.8H2.9c-1.4,0-2.5-1.1-2.5-2.5V23.6c0-1.4,1.1-2.5,2.5-2.5h12.7c1.4,0,2.5,1.1,2.5,2.5v12.7
			C18.1,37.7,17,38.8,15.7,38.8L15.7,38.8z"/>
		<path class="st0" d="M15.7,19.3H2.9c-1.4,0-2.5-1.1-2.5-2.5V4.1c0-1.4,1.1-2.5,2.5-2.5h12.7c1.4,0,2.5,1.1,2.5,2.5v12.7
			C18.1,18.2,17,19.3,15.7,19.3L15.7,19.3z"/>
		<path class="st0" d="M56,10.8H44.7c-0.2,0-0.4,0.2-0.4,0.4v35.4c0,0.2-0.2,0.4-0.4,0.4h-7.8c-0.2,0-0.4-0.2-0.4-0.4V11.2
			c0-0.2-0.2-0.4-0.4-0.4H24c-0.2,0-0.4-0.2-0.4-0.4V3.6c0-0.2,0.2-0.4,0.4-0.4h32c0.2,0,0.4,0.2,0.4,0.4v6.8
			C56.4,10.6,56.2,10.8,56,10.8L56,10.8z"/>
		<path class="st0" d="M89,47h-7.1c-0.2,0-0.4-0.2-0.4-0.4V28c0-4.6-3-6.8-6.2-6.8c-2.3,0-4.5,0.7-6.4,2c-0.1,0.1-0.2,0.2-0.2,0.3
			v23c0,0.2-0.2,0.4-0.4,0.4h-7.2c-0.2,0-0.4-0.2-0.4-0.4V2c0-0.2,0.2-0.4,0.4-0.4h7.2c0.2,0,0.4,0.2,0.4,0.4v14.4
			c0,0.3,0.3,0.5,0.6,0.3c2.3-1.5,5.3-2.3,7.9-2.3c6.5,0,12.2,4.2,12.2,13v19.1C89.4,46.8,89.2,47,89,47L89,47z"/>
		<path class="st0" d="M118.6,28c0.3,0,0.5-0.3,0.4-0.5c-1.4-3.7-4.7-6.2-8.5-6.2c-3.8,0-7,2.5-8.4,6.2c-0.1,0.2,0.1,0.5,0.4,0.5
			H118.6L118.6,28z M127.4,31.1c0,0.9-0.1,1.9-0.2,2.9c0,0.2-0.2,0.3-0.4,0.3h-24.4c-0.3,0-0.5,0.3-0.4,0.5c1.3,3.5,4.4,6.2,8.8,6.2
			c2.7,0,5.6-0.9,7.6-2.5c0.2-0.1,0.4-0.1,0.5,0l4.4,4.4c0.2,0.2,0.1,0.4,0,0.6c-4.2,3.1-8.2,4.2-12.7,4.2
			c-9.5,0-16.9-7.4-16.9-16.6c0-9.2,7.5-16.6,16.8-16.6C119.5,14.5,127.4,21.4,127.4,31.1L127.4,31.1z"/>
		<path class="st0" d="M54.8,57.9H43.9c-0.2,0-0.4,0.2-0.4,0.4v34.1c0,0.2-0.2,0.4-0.4,0.4h-7.5c-0.2,0-0.4-0.2-0.4-0.4V58.3
			c0-0.2-0.2-0.4-0.4-0.4H24c-0.2,0-0.4-0.2-0.4-0.4V51c0-0.2,0.2-0.4,0.4-0.4h30.8c0.2,0,0.4,0.2,0.4,0.4v6.5
			C55.2,57.7,55,57.9,54.8,57.9L54.8,57.9z"/>
		<path class="st0" d="M82,77.5c0-5.2-3.9-9.3-8.7-9.3c-4.8,0-8.7,4.1-8.7,9.3c0,5.2,3.9,9.3,8.7,9.3C78.1,86.8,82,82.7,82,77.5
			L82,77.5z M89.6,77.5c0,9.1-7.2,16-16.3,16c-9,0-16.2-7-16.2-16c0-8.9,7.4-16,16.2-16C82.3,61.5,89.6,68.5,89.6,77.5L89.6,77.5z"
			/>
		<path class="st0" d="M137.6,62.7l-10,29.8c-0.1,0.2-0.2,0.3-0.4,0.3h-6c-0.2,0-0.3-0.1-0.4-0.3l-5.6-16.8c-0.1-0.3-0.6-0.3-0.7,0
			l-5.6,16.8c-0.1,0.2-0.2,0.3-0.4,0.3h-6c-0.2,0-0.3-0.1-0.4-0.3l-10-29.8c-0.1-0.2,0.1-0.5,0.4-0.5h7.2c0.2,0,0.3,0.1,0.4,0.3
			l5.3,17.6c0.1,0.4,0.6,0.4,0.7,0l5.3-17.6c0-0.2,0.2-0.3,0.4-0.3h6.2c0.2,0,0.3,0.1,0.4,0.3l5.4,17.6c0.1,0.4,0.6,0.4,0.7,0
			l5.3-17.6c0-0.2,0.2-0.3,0.4-0.3h7.2C137.5,62.2,137.6,62.5,137.6,62.7L137.6,62.7z"/>
		<g>
			<path class="st0" d="M164.7,74.5c-1.2-3.8-4.5-6.4-8.4-6.4c-3.8,0-7.1,2.6-8.3,6.4H164.7L164.7,74.5z M172.6,77.5
				c0,1-0.1,2.1-0.3,3.2H148c1.2,3.6,4.2,6.4,8.6,6.4c2.7,0,5.7-1,7.5-2.6l4.8,4.8c-4.2,3.2-8.1,4.3-12.6,4.3
				c-9.1,0-16.3-7.2-16.3-16c0-8.9,7.2-16,16.2-16C165,61.5,172.6,68.1,172.6,77.5L172.6,77.5z"/>
			<path class="st0" d="M199.1,65.7l-3.6,5.8c-0.1,0.2-0.4,0.2-0.6,0.1c-1.4-1.5-3.1-2.7-4.8-2.7c-1.9,0-5.1,1.7-5.1,6.7v16.8
				c0,0.2-0.2,0.4-0.4,0.4h-6.9c-0.2,0-0.4-0.2-0.4-0.4V62.7c0-0.2,0.2-0.4,0.4-0.4h6.9c0.2,0,0.4,0.2,0.4,0.4v1.8
				c0,0.4,0.4,0.5,0.7,0.2c1.7-2,3.7-3.2,6.1-3.2c2.6,0,5.1,1.5,7.3,3.7C199.2,65.4,199.2,65.6,199.1,65.7L199.1,65.7z"/>
		</g>
		<polygon class="st0" points="13.5,114.8 11.4,114.8 11.4,105.1 7.9,114.8 6.1,114.8 2.5,105.1 2.5,114.8 0.5,114.8 0.5,102.2 
			3.6,102.2 7.1,112.1 10.5,102.2 13.5,102.2 13.5,114.8 		"/>
		<path class="st0" d="M19.5,110.7c-0.9,0.1-2,0.3-2,1.5c0,0.9,0.6,1.4,1.6,1.4c0.8,0,1.6-0.3,2.1-0.7c0.4-0.4,0.4-1,0.4-1.6v-1.1
			C21,110.6,20.2,110.6,19.5,110.7L19.5,110.7z M19.8,105.4c2.2,0,3.7,0.8,3.7,2.8v4.6c0,0.5,0.1,0.7,0.5,0.7c0.1,0,0.2,0,0.5,0v1.4
			c-0.6,0.2-0.9,0.2-1.3,0.2c-0.8,0-1.3-0.3-1.5-1.1c-0.8,0.8-2,1.1-3.2,1.1c-1.9,0-3.1-1-3.1-2.7c0-2.4,2.3-2.7,4.1-2.9
			c1.4-0.2,1.8-0.3,2-0.5c0.1-0.1,0.1-0.3,0.1-0.7c0-0.9-0.6-1.4-1.9-1.4c-1.3,0-1.9,0.4-2,1.6h-1.9
			C16.1,106.2,17.6,105.4,19.8,105.4L19.8,105.4z"/>
		<polygon class="st0" points="27.8,114.8 25.8,114.8 25.8,102.2 27.8,102.2 27.8,114.8 		"/>
		<polygon class="st0" points="32.1,114.8 30.1,114.8 30.1,102.2 32.1,102.2 32.1,114.8 		"/>
		<polygon class="st0" points="52.5,114.8 50.4,114.8 50.4,105.1 46.9,114.8 45.1,114.8 41.5,105.1 41.5,114.8 39.4,114.8 
			39.4,102.2 42.5,102.2 46.1,112.1 49.4,102.2 52.5,102.2 52.5,114.8 		"/>
		<path class="st0" d="M58.5,110.7c-0.9,0.1-2,0.3-2,1.5c0,0.9,0.6,1.4,1.6,1.4c0.8,0,1.6-0.3,2.1-0.7c0.4-0.4,0.4-1,0.4-1.6v-1.1
			C59.9,110.6,59.2,110.6,58.5,110.7L58.5,110.7z M58.8,105.4c2.2,0,3.7,0.8,3.7,2.8v4.6c0,0.5,0.1,0.7,0.5,0.7c0.1,0,0.2,0,0.5,0
			v1.4c-0.6,0.2-0.9,0.2-1.3,0.2c-0.8,0-1.3-0.3-1.5-1.1c-0.8,0.8-2,1.1-3.2,1.1c-1.9,0-3.1-1-3.1-2.7c0-2.4,2.3-2.7,4.1-2.9
			c1.4-0.2,1.8-0.3,2-0.5c0.1-0.1,0.1-0.3,0.1-0.7c0-0.9-0.6-1.4-1.9-1.4c-1.3,0-1.9,0.4-2,1.6h-1.9C55,106.2,56.6,105.4,58.8,105.4
			L58.8,105.4z"/>
		<path class="st0" d="M66.6,107c0.8-1.1,1.7-1.6,3-1.6c2.1,0,3.1,1.2,3.1,3.3v6.1h-2v-5.3c0-1.3-0.2-2.4-1.8-2.4
			c-1.2,0-2.2,0.7-2.2,2.8v4.9h-2v-9.1h1.9V107L66.6,107z"/>
		<path class="st0" d="M78.5,110.7c-0.9,0.1-2,0.3-2,1.5c0,0.9,0.6,1.4,1.6,1.4c0.8,0,1.6-0.3,2.1-0.7c0.4-0.4,0.4-1,0.4-1.6v-1.1
			C79.9,110.6,79.2,110.6,78.5,110.7L78.5,110.7z M78.8,105.4c2.2,0,3.7,0.8,3.7,2.8v4.6c0,0.5,0.1,0.7,0.5,0.7c0.1,0,0.2,0,0.5,0
			v1.4c-0.6,0.2-0.9,0.2-1.3,0.2c-0.8,0-1.3-0.3-1.5-1.1c-0.8,0.8-2,1.1-3.2,1.1c-1.9,0-3.1-1-3.1-2.7c0-2.4,2.3-2.7,4.1-2.9
			c1.4-0.2,1.8-0.3,2-0.5c0.1-0.1,0.1-0.3,0.1-0.7c0-0.9-0.6-1.4-1.9-1.4c-1.3,0-1.9,0.4-2,1.6h-1.9C75,106.2,76.5,105.4,78.8,105.4
			L78.8,105.4z"/>
		<path class="st0" d="M86.3,110.1c0,1.8,1,3,2.4,3c1.5,0,2.4-1.2,2.4-3.1c0-1.9-0.9-3-2.4-3C87.2,107.1,86.3,108.2,86.3,110.1
			L86.3,110.1z M93.1,113.7c0,3-1.1,4.6-4.4,4.6c-2.5,0-3.9-0.9-4.1-2.8h2c0.2,0.9,0.8,1.4,2.1,1.4c1.7,0,2.4-0.8,2.4-2.7v-1.1
			c-0.7,1.1-1.6,1.5-2.9,1.5c-2.4,0-4-1.8-4-4.5c0-2.9,1.6-4.7,4.1-4.7c1.3,0,2.1,0.5,2.8,1.5v-1.3h1.9V113.7L93.1,113.7z"/>
		<path class="st0" d="M99.1,106.9c-1.3,0-2.2,0.9-2.4,2.5h4.7C101.3,107.8,100.4,106.9,99.1,106.9L99.1,106.9z M99.2,115.1
			c-2.8,0-4.5-2-4.5-4.8c0-2.9,1.9-4.9,4.4-4.9c2.7,0,4.3,2,4.3,5.1v0.2h-6.7c0.1,1.8,1,2.9,2.5,2.9c1.1,0,1.8-0.5,2.2-1.7h1.9
			C102.9,113.9,101.3,115.1,99.2,115.1L99.2,115.1z"/>
		<path class="st0" d="M106.9,107c0.7-1,1.6-1.5,2.9-1.5c1.2,0,2.1,0.5,2.5,1.6c0.7-1,1.7-1.6,3-1.6c1.7,0,3,1,3,2.9v6.5h-2v-5.6
			c0-1.1-0.2-2.1-1.6-2.1c-1.3,0-2,0.9-2,2.3v5.4h-2v-5.7c0-1.1-0.2-2-1.5-2c-1.4,0-2.1,1-2.1,2.4v5.3h-2v-9.1h1.9V107L106.9,107z"
			/>
		<path class="st0" d="M124.3,106.9c-1.3,0-2.2,0.9-2.4,2.5h4.7C126.5,107.8,125.6,106.9,124.3,106.9L124.3,106.9z M124.4,115.1
			c-2.8,0-4.5-2-4.5-4.8c0-2.9,1.9-4.9,4.4-4.9c2.7,0,4.3,2,4.3,5.1v0.2h-6.7c0.1,1.8,1,2.9,2.5,2.9c1.1,0,1.8-0.5,2.2-1.7h1.9
			C128.1,113.9,126.5,115.1,124.4,115.1L124.4,115.1z"/>
		<path class="st0" d="M132.1,107c0.8-1.1,1.7-1.6,3-1.6c2.1,0,3.1,1.2,3.1,3.3v6.1h-2v-5.3c0-1.3-0.2-2.4-1.8-2.4
			c-1.2,0-2.2,0.7-2.2,2.8v4.9h-2v-9.1h1.9V107L132.1,107z"/>
		<path class="st0" d="M144.8,107.1H143v4.8c0,0.9,0,1.3,1,1.3c0.3,0,0.5,0,0.8,0v1.6c-0.6,0.1-0.8,0.1-1.4,0.1
			c-2.7,0-2.5-1.3-2.5-3.4v-4.3h-1.5v-1.5h1.5v-2.7h2v2.7h1.8V107.1L144.8,107.1z"/>
		<path class="st0" d="M163,114.8h-0.6l-0.1-2.4l0-0.9c-0.7,2.3-2.8,3.5-5.1,3.5c-3.7,0-6.2-2.7-6.2-6.8c0-4.2,2.5-7,6.2-7
			c2.8,0,5.1,1.7,5.5,4.4H162c-0.5-2.3-2.4-3.7-4.8-3.7c-3.3,0-5.4,2.5-5.4,6.3c0,3.6,2.2,6.1,5.5,6.1c3,0,5-2.1,5-5.2V109h-4.9
			v-0.7h5.6V114.8L163,114.8z"/>
		<path class="st0" d="M169.6,106h-0.3c-1.1,0-2,0.4-2.6,1.3c-0.8,1-0.8,2.2-0.8,3.4v4.1h-0.7v-9.5h0.7v2.5c0.7-1.9,1.8-2.6,3.7-2.6
			V106L169.6,106z"/>
		<path class="st0" d="M170.6,110c0,2.7,1.4,4.4,3.7,4.4c2.2,0,3.6-1.7,3.6-4.3c0-2.7-1.4-4.4-3.6-4.4S170.6,107.4,170.6,110
			L170.6,110z M178.7,110.1c0,3-1.7,5-4.4,5c-2.7,0-4.4-2-4.4-5c0-3,1.8-5,4.4-5C176.9,105,178.7,107,178.7,110.1L178.7,110.1z"/>
		<path class="st0" d="M187.7,114.8H187v-2c-0.6,1.4-1.7,2.3-3.4,2.3c-2.3,0-3.4-1.5-3.4-3.7v-6.1h0.7v6c0,1.7,0.6,3.2,2.8,3.2
			c2.3,0,3.2-2,3.2-4v-5.2h0.7V114.8L187.7,114.8z"/>
		<path class="st0" d="M190.7,110.1c0,2.2,1,4.4,3.5,4.4c2.1,0,3.5-1.7,3.5-4.4c0-2.7-1.4-4.4-3.5-4.4
			C192,105.7,190.7,107.3,190.7,110.1L190.7,110.1z M190.7,107.6c0.6-1.7,1.8-2.5,3.5-2.5c2.6,0,4.3,2,4.3,5.1c0,3-1.7,5-4.2,5
			c-1.8,0-3-0.9-3.5-2.5v5.6H190v-12.9h0.7V107.6L190.7,107.6z"/>
	</g>
</g>
</svg>
