<?xml version="1.0" encoding="utf-8"?>
<!-- Generator: Adobe Illustrator 22.1.0, SVG Export Plug-In . SVG Version: 6.00 Build 0)  -->
<svg version="1.1" id="Слой_1" xmlns="http://www.w3.org/2000/svg" xmlns:xlink="http://www.w3.org/1999/xlink" x="0px" y="0px"
	 viewBox="0 0 190 59" style="enable-background:new 0 0 190 59;" xml:space="preserve">
<g>
	<g>
		<g>
			<defs>
				
					<rect id="SVGID_6_" x="2.2" y="37.5" transform="matrix(0.8742 -0.4855 0.4855 0.8742 -17.4248 9.0139)" width="13" height="1.2"/>
			</defs>
			<clipPath id="SVGID_7_">
				<use xlink:href="#SVGID_6_"  style="overflow:visible;"/>
			</clipPath>
			
				<linearGradient id="SVGID_8_" gradientUnits="userSpaceOnUse" x1="-312.8796" y1="261.6897" x2="-312.1877" y2="261.6897" gradientTransform="matrix(17.3063 0 0 -17.3063 5417.4893 4567.02)">
				<stop  offset="0" style="stop-color:#958067"/>
				<stop  offset="0.1034" style="stop-color:#A99479"/>
				<stop  offset="0.1795" style="stop-color:#B39D82"/>
				<stop  offset="0.3849" style="stop-color:#B9A690"/>
				<stop  offset="0.5" style="stop-color:#BEAD9A"/>
				<stop  offset="0.7343" style="stop-color:#B39D82"/>
				<stop  offset="1" style="stop-color:#796C5A"/>
			</linearGradient>
			<rect x="2.7" y="34.4" style="clip-path:url(#SVGID_7_);fill:url(#SVGID_8_);" width="12" height="7.4"/>
		</g>
		<g>
			<defs>
				
					<rect id="SVGID_5_" x="42.2" y="31.6" transform="matrix(0.4856 -0.8742 0.8742 0.4856 -11.3267 57.0242)" width="1.2" height="13"/>
			</defs>
			<clipPath id="SVGID_9_">
				<use xlink:href="#SVGID_5_"  style="overflow:visible;"/>
			</clipPath>
			
				<linearGradient id="SVGID_10_" gradientUnits="userSpaceOnUse" x1="-313.7568" y1="261.6897" x2="-313.0648" y2="261.6897" gradientTransform="matrix(17.3063 0 0 -17.3063 5466.7778 4567.02)">
				<stop  offset="0" style="stop-color:#958067"/>
				<stop  offset="0.1034" style="stop-color:#A99479"/>
				<stop  offset="0.1795" style="stop-color:#B39D82"/>
				<stop  offset="0.3849" style="stop-color:#B9A690"/>
				<stop  offset="0.5" style="stop-color:#BEAD9A"/>
				<stop  offset="0.7343" style="stop-color:#B39D82"/>
				<stop  offset="1" style="stop-color:#796C5A"/>
			</linearGradient>
			<rect x="36.8" y="34.4" style="clip-path:url(#SVGID_9_);fill:url(#SVGID_10_);" width="12" height="7.4"/>
		</g>
		<g>
			<defs>
				<path id="SVGID_4_" d="M25.7,56L2.4,42.5v-27L25.7,2l23.4,13.5v27L25.7,56z M3.6,41.7l22.1,12.8l22.1-12.8V16.2L25.7,3.4
					L3.6,16.2V41.7z"/>
			</defs>
			<clipPath id="SVGID_11_">
				<use xlink:href="#SVGID_4_"  style="overflow:visible;"/>
			</clipPath>
			
				<linearGradient id="SVGID_12_" gradientUnits="userSpaceOnUse" x1="-318.1729" y1="267.8097" x2="-317.4809" y2="267.8097" gradientTransform="matrix(67.5244 0 0 -67.5244 21486.8008 18112.6582)">
				<stop  offset="0" style="stop-color:#958067"/>
				<stop  offset="0.1034" style="stop-color:#A99479"/>
				<stop  offset="0.1795" style="stop-color:#B39D82"/>
				<stop  offset="0.3849" style="stop-color:#B9A690"/>
				<stop  offset="0.5" style="stop-color:#BEAD9A"/>
				<stop  offset="0.7343" style="stop-color:#B39D82"/>
				<stop  offset="1" style="stop-color:#796C5A"/>
			</linearGradient>
			<rect x="2.4" y="2" style="clip-path:url(#SVGID_11_);fill:url(#SVGID_12_);" width="46.7" height="54"/>
		</g>
		<g>
			<defs>
				<polygon id="SVGID_3_" points="25.7,42.7 25.4,42.5 2.7,29.2 3.3,28.1 25.7,41.2 48.2,28.1 48.8,29.2 				"/>
			</defs>
			<clipPath id="SVGID_13_">
				<use xlink:href="#SVGID_3_"  style="overflow:visible;"/>
			</clipPath>
			
				<linearGradient id="SVGID_14_" gradientUnits="userSpaceOnUse" x1="-318.1505" y1="267.8231" x2="-317.4584" y2="267.8231" gradientTransform="matrix(66.6282 0 0 -66.6282 21200.4785 17879.957)">
				<stop  offset="0" style="stop-color:#958067"/>
				<stop  offset="0.1034" style="stop-color:#A99479"/>
				<stop  offset="0.1795" style="stop-color:#B39D82"/>
				<stop  offset="0.3849" style="stop-color:#B9A690"/>
				<stop  offset="0.5" style="stop-color:#BEAD9A"/>
				<stop  offset="0.7343" style="stop-color:#B39D82"/>
				<stop  offset="1" style="stop-color:#796C5A"/>
			</linearGradient>
			<rect x="2.7" y="28.1" style="clip-path:url(#SVGID_13_);fill:url(#SVGID_14_);" width="46.1" height="14.5"/>
		</g>
		<g>
			<defs>
				<polygon id="SVGID_2_" points="48.2,29.2 25.7,16.7 3.3,29.2 2.7,28.1 25.7,15.3 48.8,28.1 				"/>
			</defs>
			<clipPath id="SVGID_15_">
				<use xlink:href="#SVGID_2_"  style="overflow:visible;"/>
			</clipPath>
			
				<linearGradient id="SVGID_16_" gradientUnits="userSpaceOnUse" x1="-318.1496" y1="267.7343" x2="-317.4576" y2="267.7343" gradientTransform="matrix(66.5946 0 0 -66.5946 21189.7402 17851.916)">
				<stop  offset="0" style="stop-color:#958067"/>
				<stop  offset="0.1034" style="stop-color:#A99479"/>
				<stop  offset="0.1795" style="stop-color:#B39D82"/>
				<stop  offset="0.3849" style="stop-color:#B9A690"/>
				<stop  offset="0.5" style="stop-color:#BEAD9A"/>
				<stop  offset="0.7343" style="stop-color:#B39D82"/>
				<stop  offset="1" style="stop-color:#796C5A"/>
			</linearGradient>
			<rect x="2.7" y="15.3" style="clip-path:url(#SVGID_15_);fill:url(#SVGID_16_);" width="46.1" height="13.9"/>
		</g>
		<g>
			<defs>
				<polygon id="SVGID_1_" points="25.7,29.4 2.7,16.6 3.3,15.5 25.7,27.9 48.2,15.5 48.8,16.6 				"/>
			</defs>
			<clipPath id="SVGID_17_">
				<use xlink:href="#SVGID_1_"  style="overflow:visible;"/>
			</clipPath>
			
				<linearGradient id="SVGID_18_" gradientUnits="userSpaceOnUse" x1="-318.1496" y1="267.7354" x2="-317.4576" y2="267.7354" gradientTransform="matrix(66.5946 0 0 -66.5946 21189.7402 17852.1602)">
				<stop  offset="0" style="stop-color:#958067"/>
				<stop  offset="0.1034" style="stop-color:#A99479"/>
				<stop  offset="0.1795" style="stop-color:#B39D82"/>
				<stop  offset="0.3849" style="stop-color:#B9A690"/>
				<stop  offset="0.5" style="stop-color:#BEAD9A"/>
				<stop  offset="0.7343" style="stop-color:#B39D82"/>
				<stop  offset="1" style="stop-color:#796C5A"/>
			</linearGradient>
			<rect x="2.7" y="15.5" style="clip-path:url(#SVGID_17_);fill:url(#SVGID_18_);" width="46.1" height="13.9"/>
		</g>
	</g>
	<g>
		<path style="fill:#040706;" d="M65,28.6c-1.1-0.6-2-1.4-2.6-2.5c-0.6-1.1-1-2.3-1-3.6s0.3-2.5,1-3.6c0.6-1.1,1.5-1.9,2.6-2.5
			c1.1-0.6,2.4-0.9,3.8-0.9c1.4,0,2.6,0.3,3.8,0.9c1.1,0.6,2,1.4,2.6,2.5c0.6,1.1,1,2.3,1,3.6c0,1.3-0.3,2.5-1,3.6
			c-0.6,1.1-1.5,1.9-2.6,2.5c-1.1,0.6-2.4,0.9-3.8,0.9C67.4,29.5,66.1,29.2,65,28.6z M71.2,26.7c0.7-0.4,1.3-1,1.7-1.7
			c0.4-0.7,0.6-1.6,0.6-2.5c0-0.9-0.2-1.7-0.6-2.5c-0.4-0.7-1-1.3-1.7-1.7s-1.5-0.6-2.5-0.6s-1.7,0.2-2.5,0.6s-1.3,1-1.7,1.7
			c-0.4,0.7-0.6,1.6-0.6,2.5c0,0.9,0.2,1.7,0.6,2.5c0.4,0.7,1,1.3,1.7,1.7c0.7,0.4,1.5,0.6,2.5,0.6S70.5,27.1,71.2,26.7z"/>
		<path style="fill:#040706;" d="M97.4,29.3l-2.8-4c-0.1,0-0.3,0-0.5,0h-3.1v4h-2.5V15.7h5.6c1.2,0,2.2,0.2,3.1,0.6
			c0.9,0.4,1.5,0.9,2,1.7c0.5,0.7,0.7,1.6,0.7,2.6c0,1-0.2,1.9-0.7,2.6c-0.5,0.7-1.2,1.3-2.2,1.7l3.1,4.5H97.4z M96.5,18.5
			c-0.6-0.5-1.4-0.7-2.5-0.7h-3v5.4h3c1.1,0,1.9-0.2,2.5-0.7s0.9-1.1,0.9-2S97.1,19,96.5,18.5z"/>
		<path style="fill:#040706;" d="M112.5,15.7h2.5v13.6h-2.5V15.7z"/>
		<path style="fill:#040706;" d="M138.6,27.2v2.1h-10.2V15.7h9.9v2.1H131v3.5h6.6v2.1H131v3.8H138.6z"/>
		<path style="fill:#040706;" d="M163.3,15.7v13.6h-2.1l-7.5-9.2v9.2h-2.5V15.7h2.1l7.5,9.2v-9.2H163.3z"/>
		<path style="fill:#040706;" d="M179.5,17.8h-4.5v-2.1h11.6v2.1H182v11.5h-2.5V17.8z"/>
	</g>
	<g>
		<g>
			<path style="fill:#424143;" d="M65.3,40.2h0.4v1.2c-0.2,0.1-0.3,0.2-0.6,0.3c-0.2,0.1-0.4,0.1-0.7,0.1c-0.3,0-0.6-0.1-0.9-0.2
				c-0.3-0.1-0.5-0.3-0.6-0.6s-0.2-0.5-0.2-0.8c0-0.3,0.1-0.6,0.2-0.8c0.1-0.2,0.4-0.4,0.6-0.6c0.3-0.1,0.6-0.2,0.9-0.2
				c0.3,0,0.5,0,0.7,0.1c0.2,0.1,0.4,0.2,0.5,0.4l-0.3,0.3c-0.3-0.2-0.6-0.4-0.9-0.4c-0.2,0-0.5,0.1-0.7,0.2
				c-0.2,0.1-0.3,0.3-0.5,0.4c-0.1,0.2-0.2,0.4-0.2,0.6c0,0.2,0.1,0.4,0.2,0.6c0.1,0.2,0.3,0.3,0.5,0.4c0.2,0.1,0.4,0.2,0.7,0.2
				c0.3,0,0.5-0.1,0.7-0.2V40.2z"/>
			<path style="fill:#424143;" d="M72.7,41.8l-0.7-1c-0.1,0-0.2,0-0.2,0H71v1h-0.5v-3.2h1.2c0.4,0,0.7,0.1,1,0.3
				c0.2,0.2,0.4,0.5,0.4,0.8c0,0.2-0.1,0.5-0.2,0.6c-0.1,0.2-0.3,0.3-0.5,0.4l0.8,1.1H72.7z M72.4,40.3c0.2-0.1,0.2-0.3,0.2-0.5
				s-0.1-0.4-0.2-0.5c-0.2-0.1-0.4-0.2-0.7-0.2H71v1.4h0.8C72.1,40.5,72.3,40.4,72.4,40.3z"/>
			<path style="fill:#424143;" d="M78.4,41.7c-0.3-0.1-0.5-0.3-0.6-0.6s-0.2-0.5-0.2-0.8c0-0.3,0.1-0.6,0.2-0.8
				c0.1-0.2,0.4-0.4,0.6-0.6c0.3-0.1,0.5-0.2,0.9-0.2c0.3,0,0.6,0.1,0.9,0.2c0.3,0.1,0.5,0.3,0.6,0.6c0.1,0.2,0.2,0.5,0.2,0.8
				c0,0.3-0.1,0.6-0.2,0.8c-0.1,0.2-0.3,0.4-0.6,0.6c-0.3,0.1-0.5,0.2-0.9,0.2C78.9,41.9,78.6,41.8,78.4,41.7z M79.9,41.3
				c0.2-0.1,0.3-0.3,0.4-0.4c0.1-0.2,0.2-0.4,0.2-0.6s-0.1-0.4-0.2-0.6c-0.1-0.2-0.3-0.3-0.4-0.4c-0.2-0.1-0.4-0.2-0.6-0.2
				c-0.2,0-0.4,0.1-0.6,0.2s-0.3,0.3-0.4,0.4C78,39.8,78,40,78,40.2s0.1,0.4,0.2,0.6c0.1,0.2,0.3,0.3,0.4,0.4s0.4,0.2,0.6,0.2
				C79.5,41.5,79.7,41.4,79.9,41.3z"/>
			<path style="fill:#424143;" d="M85.9,41.5c-0.2-0.2-0.4-0.6-0.4-1.1v-1.8H86v1.8c0,0.7,0.3,1,0.9,1c0.3,0,0.5-0.1,0.7-0.3
				c0.2-0.2,0.2-0.4,0.2-0.8v-1.8h0.4v1.8c0,0.5-0.1,0.8-0.4,1.1c-0.2,0.2-0.6,0.4-1,0.4C86.4,41.9,86.1,41.7,85.9,41.5z"/>
			<path style="fill:#424143;" d="M95.3,38.9c0.2,0.2,0.4,0.5,0.4,0.8c0,0.3-0.1,0.6-0.4,0.8c-0.2,0.2-0.6,0.3-1,0.3h-0.8v1h-0.5
				v-3.2h1.2C94.7,38.6,95.1,38.7,95.3,38.9z M95,40.3c0.2-0.1,0.2-0.3,0.2-0.5s-0.1-0.4-0.2-0.5c-0.2-0.1-0.4-0.2-0.7-0.2h-0.8v1.4
				h0.8C94.6,40.5,94.8,40.4,95,40.3z"/>
			<path style="fill:#424143;" d="M106,41.7c-0.3-0.1-0.5-0.3-0.6-0.6s-0.2-0.5-0.2-0.8c0-0.3,0.1-0.6,0.2-0.8
				c0.1-0.2,0.4-0.4,0.6-0.6c0.3-0.1,0.5-0.2,0.9-0.2c0.3,0,0.6,0.1,0.9,0.2c0.3,0.1,0.5,0.3,0.6,0.6c0.1,0.2,0.2,0.5,0.2,0.8
				c0,0.3-0.1,0.6-0.2,0.8c-0.1,0.2-0.3,0.4-0.6,0.6c-0.3,0.1-0.5,0.2-0.9,0.2C106.6,41.9,106.3,41.8,106,41.7z M107.5,41.3
				c0.2-0.1,0.3-0.3,0.4-0.4c0.1-0.2,0.2-0.4,0.2-0.6s-0.1-0.4-0.2-0.6c-0.1-0.2-0.3-0.3-0.4-0.4c-0.2-0.1-0.4-0.2-0.6-0.2
				c-0.2,0-0.4,0.1-0.6,0.2c-0.2,0.1-0.3,0.3-0.4,0.4s-0.2,0.4-0.2,0.6s0.1,0.4,0.2,0.6c0.1,0.2,0.3,0.3,0.4,0.4
				c0.2,0.1,0.4,0.2,0.6,0.2C107.1,41.5,107.4,41.4,107.5,41.3z"/>
			<path style="fill:#424143;" d="M113.7,39v1.1h1.6v0.4h-1.6v1.3h-0.5v-3.2h2.3V39H113.7z"/>
			<path style="fill:#424143;" d="M125.8,41.7c-0.3-0.1-0.5-0.3-0.6-0.6c-0.1-0.2-0.2-0.5-0.2-0.8c0-0.3,0.1-0.6,0.2-0.8
				c0.1-0.2,0.3-0.4,0.6-0.6c0.3-0.1,0.5-0.2,0.9-0.2c0.2,0,0.5,0,0.7,0.1c0.2,0.1,0.4,0.2,0.5,0.4l-0.3,0.3
				c-0.2-0.3-0.5-0.4-0.9-0.4c-0.2,0-0.5,0.1-0.6,0.2c-0.2,0.1-0.3,0.3-0.4,0.4s-0.2,0.4-0.2,0.6s0.1,0.4,0.2,0.6
				c0.1,0.2,0.3,0.3,0.4,0.4c0.2,0.1,0.4,0.2,0.6,0.2c0.4,0,0.7-0.1,0.9-0.4l0.3,0.3c-0.1,0.2-0.3,0.3-0.5,0.4
				c-0.2,0.1-0.4,0.1-0.7,0.1C126.3,41.9,126,41.8,125.8,41.7z"/>
			<path style="fill:#424143;" d="M133,41.7c-0.3-0.1-0.5-0.3-0.6-0.6s-0.2-0.5-0.2-0.8c0-0.3,0.1-0.6,0.2-0.8
				c0.1-0.2,0.4-0.4,0.6-0.6c0.3-0.1,0.5-0.2,0.9-0.2c0.3,0,0.6,0.1,0.9,0.2c0.3,0.1,0.5,0.3,0.6,0.6c0.1,0.2,0.2,0.5,0.2,0.8
				c0,0.3-0.1,0.6-0.2,0.8c-0.1,0.2-0.3,0.4-0.6,0.6c-0.3,0.1-0.5,0.2-0.9,0.2C133.6,41.9,133.3,41.8,133,41.7z M134.5,41.3
				c0.2-0.1,0.3-0.3,0.4-0.4c0.1-0.2,0.2-0.4,0.2-0.6s-0.1-0.4-0.2-0.6c-0.1-0.2-0.3-0.3-0.4-0.4c-0.2-0.1-0.4-0.2-0.6-0.2
				c-0.2,0-0.4,0.1-0.6,0.2c-0.2,0.1-0.3,0.3-0.4,0.4c-0.1,0.2-0.2,0.4-0.2,0.6s0.1,0.4,0.2,0.6c0.1,0.2,0.3,0.3,0.4,0.4
				c0.2,0.1,0.4,0.2,0.6,0.2C134.1,41.5,134.3,41.4,134.5,41.3z"/>
			<path style="fill:#424143;" d="M143.2,41.8l0-2.3l-1.2,1.9h-0.2l-1.2-1.9v2.3h-0.4v-3.2h0.4l1.3,2.2l1.3-2.2h0.4l0,3.2H143.2z"/>
			<path style="fill:#424143;" d="M150.7,38.9c0.2,0.2,0.4,0.5,0.4,0.8c0,0.3-0.1,0.6-0.4,0.8c-0.2,0.2-0.6,0.3-1,0.3h-0.8v1h-0.5
				v-3.2h1.2C150.1,38.6,150.5,38.7,150.7,38.9z M150.4,40.3c0.2-0.1,0.2-0.3,0.2-0.5s-0.1-0.4-0.2-0.5c-0.2-0.1-0.4-0.2-0.7-0.2
				h-0.8v1.4h0.8C150,40.5,150.2,40.4,150.4,40.3z"/>
			<path style="fill:#424143;" d="M157.7,41H156l-0.4,0.8h-0.5l1.4-3.2h0.5l1.5,3.2h-0.5L157.7,41z M157.6,40.7l-0.7-1.6l-0.7,1.6
				H157.6z"/>
			<path style="fill:#424143;" d="M165.7,38.6v3.2h-0.4l-1.9-2.4v2.4H163v-3.2h0.4l1.9,2.4v-2.4H165.7z"/>
			<path style="fill:#424143;" d="M170.6,38.6h0.5v3.2h-0.5V38.6z"/>
			<path style="fill:#424143;" d="M178.3,41.4v0.4h-2.3v-3.2h2.3V39h-1.8v1h1.6v0.4h-1.6v1H178.3z"/>
			<path style="fill:#424143;" d="M183.2,41.8c-0.2-0.1-0.4-0.2-0.5-0.3l0.2-0.4c0.1,0.1,0.3,0.2,0.5,0.3c0.2,0.1,0.4,0.1,0.6,0.1
				c0.3,0,0.5,0,0.6-0.1c0.1-0.1,0.2-0.2,0.2-0.4c0-0.1,0-0.2-0.1-0.3c-0.1-0.1-0.2-0.1-0.3-0.2c-0.1,0-0.3-0.1-0.4-0.1
				c-0.2-0.1-0.4-0.1-0.6-0.2c-0.1-0.1-0.3-0.1-0.4-0.3s-0.2-0.3-0.2-0.5c0-0.2,0-0.3,0.1-0.5c0.1-0.1,0.2-0.2,0.4-0.3
				c0.2-0.1,0.4-0.1,0.7-0.1c0.2,0,0.4,0,0.6,0.1c0.2,0,0.3,0.1,0.5,0.2l-0.2,0.4c-0.1-0.1-0.3-0.1-0.4-0.2c-0.2,0-0.3-0.1-0.4-0.1
				c-0.3,0-0.5,0-0.6,0.1c-0.1,0.1-0.2,0.2-0.2,0.4c0,0.1,0,0.2,0.1,0.3c0.1,0.1,0.2,0.1,0.3,0.2c0.1,0,0.3,0.1,0.4,0.1
				c0.2,0.1,0.4,0.1,0.6,0.2c0.1,0.1,0.3,0.1,0.4,0.3c0.1,0.1,0.2,0.3,0.2,0.5c0,0.2,0,0.3-0.1,0.5c-0.1,0.1-0.2,0.2-0.4,0.3
				c-0.2,0.1-0.4,0.1-0.7,0.1C183.6,41.9,183.4,41.8,183.2,41.8z"/>
		</g>
	</g>
</g>
</svg>
