<?xml version="1.0" encoding="utf-8"?>
<!-- Generator: Adobe Illustrator 22.1.0, SVG Export Plug-In . SVG Version: 6.00 Build 0)  -->
<svg version="1.1" id="Слой_1" xmlns="http://www.w3.org/2000/svg" xmlns:xlink="http://www.w3.org/1999/xlink" x="0px" y="0px"
	 viewBox="0 0 90 90" style="enable-background:new 0 0 90 90;" xml:space="preserve">
<style type="text/css">
	.st0{fill:#C49A6C;}
</style>
<g>
	<path class="st0" d="M1070.7,2450h-20v-26.7c0-0.7-0.6-1.3-1.3-1.3h-10.8c1.8-1.8,2.8-4.2,2.8-6.7c0-0.7-0.6-1.3-1.3-1.3
		c-3.3,0-6.3,1.7-8,4.6c-1.7-2.8-4.7-4.5-8-4.6c-0.7,0-1.3,0.6-1.3,1.3c0,2.5,1,4.9,2.8,6.7h-10.8c-0.7,0-1.3,0.6-1.3,1.3v26.7h-20
		c-0.7,0-1.3,0.6-1.3,1.3v5.3c0,0.7,0.6,1.3,1.3,1.3h43.8l-8,2.7h-19.8c-0.4,0-0.7,0.1-0.9,0.4l-5.7,5.7l-1.7-1.7
		c-0.5-0.5-1.4-0.5-1.9,0l-6.7,6.7c-0.5,0.5-0.5,1.4,0,1.9l20,20c0.5,0.5,1.4,0.5,1.9,0l6.7-6.7c0.5-0.5,0.5-1.4,0-1.9l-0.2-0.2
		l7.7-5.5h26.2c0.3,0,0.7-0.1,0.9-0.4l14.5-13.3c2.2-2,2.6-5.3,0.9-7.8c0.6-0.1,1-0.7,1-1.3v-5.3
		C1072,2450.6,1071.4,2450,1070.7,2450z M1038.5,2416.8c-0.6,2.5-2.5,4.4-5,5C1034.1,2419.3,1036,2417.4,1038.5,2416.8z
		 M1030.5,2421.8c-2.5-0.6-4.4-2.5-5-5C1028,2417.4,1029.9,2419.3,1030.5,2421.8L1030.5,2421.8z M1016,2424.7h32v25.3h-14.3
		l11.4-15.2c0.4-0.5,0.4-1.1,0-1.6l-4-5.3c-0.3-0.3-0.6-0.5-1.1-0.5h-16c-0.4,0-0.8,0.2-1.1,0.5l-4,5.3c-0.4,0.5-0.4,1.1,0,1.6
		l11.4,15.2H1016V2424.7z M1035.4,2435.3l-3.4,9.4l-3.4-9.4H1035.4z M1029.9,2432.7l2.1-2.1l2.1,2.1H1029.9z M1038.3,2435.3h3.1
		l-6,7.9L1038.3,2435.3z M1037.9,2432.7l-2.7-2.7h4.1l2,2.7H1037.9z M1026.1,2432.7h-3.4l2-2.7h4.1L1026.1,2432.7z M1025.7,2435.3
		l2.9,7.9l-6-7.9H1025.7z M994.7,2452.7h74.7v2.7h-74.7V2452.7z M1060.5,2458l-9,8h-4.7c2.6-1.4,3.6-4.6,2.2-7.2
		c-0.1-0.3-0.3-0.5-0.5-0.8H1060.5z M1013.3,2490.8l-18.1-18.1l4.8-4.8l18.1,18.1L1013.3,2490.8z M1068.3,2463.7l-14.1,12.9H1028
		c-0.3,0-0.5,0.1-0.8,0.2l-8.4,6l-14.3-14.3l5.3-5.3h19.4c0.1,0,0.3,0,0.4-0.1l13.6-4.5c1.4-0.5,2.9,0.3,3.4,1.7
		c0.5,1.4-0.3,2.9-1.7,3.4c-0.1,0-0.1,0-0.2,0l-7.8,2.1h-3.8v2.7h18.7c0.3,0,0.6-0.1,0.9-0.3l10.7-9.5c0.6-0.5,1.4-0.8,2.2-0.8h0.3
		c1.8,0,3.3,1.5,3.3,3.3C1069.3,2462.2,1069,2463.1,1068.3,2463.7z"/>
	
		<rect x="999.3" y="2470.5" transform="matrix(0.7071 -0.7071 0.7071 0.7071 -1455.8171 1431.9999)" class="st0" width="2.7" height="5.7"/>
	<rect x="1054.7" y="2419.3" class="st0" width="2.7" height="2.7"/>
	<rect x="1057.3" y="2416.7" class="st0" width="2.7" height="2.7"/>
	<rect x="1060" y="2419.3" class="st0" width="2.7" height="2.7"/>
	<rect x="1057.3" y="2422" class="st0" width="2.7" height="2.7"/>
	<rect x="1069.3" y="2415.3" class="st0" width="2.7" height="2.7"/>
	<rect x="1058.7" y="2430" class="st0" width="2.7" height="2.7"/>
	<rect x="1004" y="2428.7" class="st0" width="2.7" height="2.7"/>
	<rect x="1004" y="2434" class="st0" width="2.7" height="2.7"/>
	<rect x="1006.7" y="2431.3" class="st0" width="2.7" height="2.7"/>
	<rect x="1001.3" y="2431.3" class="st0" width="2.7" height="2.7"/>
	<rect x="992" y="2422" class="st0" width="2.7" height="2.7"/>
	<rect x="1004" y="2415.3" class="st0" width="2.7" height="2.7"/>
</g>
<g>
	<path class="st0" d="M83.7,41h-20V14.3c0-0.7-0.6-1.3-1.3-1.3H51.5c1.8-1.8,2.8-4.2,2.8-6.7C54.3,5.6,53.7,5,53,5
		c-3.3,0-6.3,1.7-8,4.6C43.3,6.7,40.3,5,37,5c-0.7,0-1.3,0.6-1.3,1.3c0,2.5,1,4.9,2.8,6.7H27.7c-0.7,0-1.3,0.6-1.3,1.3V41h-20
		C5.6,41,5,41.6,5,42.3v5.3C5,48.4,5.6,49,6.3,49h43.8l-8,2.7H22.3c-0.4,0-0.7,0.1-0.9,0.4l-5.7,5.7L13.9,56c-0.5-0.5-1.4-0.5-1.9,0
		l-6.7,6.7c-0.5,0.5-0.5,1.4,0,1.9l20,20c0.5,0.5,1.4,0.5,1.9,0l6.7-6.7c0.5-0.5,0.5-1.4,0-1.9l-0.2-0.2l7.7-5.5h26.2
		c0.3,0,0.7-0.1,0.9-0.4l14.5-13.3c2.2-2,2.6-5.3,0.9-7.8c0.6-0.1,1-0.7,1-1.3v-5.3C85,41.6,84.4,41,83.7,41z M51.5,7.8
		c-0.6,2.5-2.5,4.4-5,5C47.1,10.3,49,8.4,51.5,7.8z M43.5,12.8c-2.5-0.6-4.4-2.5-5-5C41,8.4,42.9,10.3,43.5,12.8L43.5,12.8z
		 M29,15.7h32V41H46.7l11.4-15.2c0.4-0.5,0.4-1.1,0-1.6l-4-5.3c-0.3-0.3-0.6-0.5-1.1-0.5H37c-0.4,0-0.8,0.2-1.1,0.5l-4,5.3
		c-0.4,0.5-0.4,1.1,0,1.6L43.3,41H29V15.7z M48.4,26.3L45,35.8l-3.4-9.4H48.4z M42.9,23.7l2.1-2.1l2.1,2.1H42.9z M51.3,26.3h3.1
		l-6,7.9L51.3,26.3z M50.9,23.7L48.2,21h4.1l2,2.7H50.9z M39.1,23.7h-3.4l2-2.7h4.1L39.1,23.7z M38.7,26.3l2.9,7.9l-6-7.9H38.7z
		 M7.7,43.7h74.7v2.7H7.7V43.7z M73.5,49l-9,8h-4.7c2.6-1.4,3.6-4.6,2.2-7.2c-0.1-0.3-0.3-0.5-0.5-0.8H73.5z M26.3,81.8L8.2,63.7
		l4.8-4.8L31.1,77L26.3,81.8z M81.3,54.7L67.1,67.7H41c-0.3,0-0.5,0.1-0.8,0.2l-8.4,6L17.6,59.7l5.3-5.3h19.4c0.1,0,0.3,0,0.4-0.1
		l13.6-4.5c1.4-0.5,2.9,0.3,3.4,1.7c0.5,1.4-0.3,2.9-1.7,3.4c-0.1,0-0.1,0-0.2,0L50.2,57h-3.8v2.7H65c0.3,0,0.6-0.1,0.9-0.3
		l10.7-9.5c0.6-0.5,1.4-0.8,2.2-0.8H79c1.8,0,3.3,1.5,3.3,3.3C82.3,53.2,82,54.1,81.3,54.7z"/>
	
		<rect x="12.3" y="61.5" transform="matrix(0.7071 -0.7071 0.7071 0.7071 -41.4825 28.5057)" class="st0" width="2.7" height="5.7"/>
	<rect x="67.7" y="10.3" class="st0" width="2.7" height="2.7"/>
	<rect x="70.3" y="7.7" class="st0" width="2.7" height="2.7"/>
	<rect x="73" y="10.3" class="st0" width="2.7" height="2.7"/>
	<rect x="70.3" y="13" class="st0" width="2.7" height="2.7"/>
	<rect x="82.3" y="6.3" class="st0" width="2.7" height="2.7"/>
	<rect x="71.7" y="21" class="st0" width="2.7" height="2.7"/>
	<rect x="17" y="19.7" class="st0" width="2.7" height="2.7"/>
	<rect x="17" y="25" class="st0" width="2.7" height="2.7"/>
	<rect x="19.7" y="22.3" class="st0" width="2.7" height="2.7"/>
	<rect x="14.3" y="22.3" class="st0" width="2.7" height="2.7"/>
	<rect x="5" y="13" class="st0" width="2.7" height="2.7"/>
	<rect x="17" y="6.3" class="st0" width="2.7" height="2.7"/>
</g>
</svg>
