<?xml version="1.0" encoding="utf-8"?>
<!-- Generator: Adobe Illustrator 22.1.0, SVG Export Plug-In . SVG Version: 6.00 Build 0)  -->
<svg version="1.1" id="Слой_1" xmlns="http://www.w3.org/2000/svg" xmlns:xlink="http://www.w3.org/1999/xlink" x="0px" y="0px"
	 viewBox="0 0 90 90" style="enable-background:new 0 0 90 90;" xml:space="preserve">
<style type="text/css">
	.st0{fill:#C49A6C;}
</style>
<g>
	<path class="st0" d="M1070.7,2450h-20v-26.7c0-0.7-0.6-1.3-1.3-1.3h-10.8c1.8-1.8,2.8-4.2,2.8-6.7c0-0.7-0.6-1.3-1.3-1.3
		c-3.3,0-6.3,1.7-8,4.6c-1.7-2.8-4.7-4.5-8-4.6c-0.7,0-1.3,0.6-1.3,1.3c0,2.5,1,4.9,2.8,6.7h-10.8c-0.7,0-1.3,0.6-1.3,1.3v26.7h-20
		c-0.7,0-1.3,0.6-1.3,1.3v5.3c0,0.7,0.6,1.3,1.3,1.3h43.8l-8,2.7h-19.8c-0.4,0-0.7,0.1-0.9,0.4l-5.7,5.7l-1.7-1.7
		c-0.5-0.5-1.4-0.5-1.9,0l-6.7,6.7c-0.5,0.5-0.5,1.4,0,1.9l20,20c0.5,0.5,1.4,0.5,1.9,0l6.7-6.7c0.5-0.5,0.5-1.4,0-1.9l-0.2-0.2
		l7.7-5.5h26.2c0.3,0,0.7-0.1,0.9-0.4l14.5-13.3c2.2-2,2.6-5.3,0.9-7.8c0.6-0.1,1-0.7,1-1.3v-5.3
		C1072,2450.6,1071.4,2450,1070.7,2450z M1038.5,2416.8c-0.6,2.5-2.5,4.4-5,5C1034.1,2419.3,1036,2417.4,1038.5,2416.8z
		 M1030.5,2421.8c-2.5-0.6-4.4-2.5-5-5C1028,2417.4,1029.9,2419.3,1030.5,2421.8L1030.5,2421.8z M1016,2424.7h32v25.3h-14.3
		l11.4-15.2c0.4-0.5,0.4-1.1,0-1.6l-4-5.3c-0.3-0.3-0.6-0.5-1.1-0.5h-16c-0.4,0-0.8,0.2-1.1,0.5l-4,5.3c-0.4,0.5-0.4,1.1,0,1.6
		l11.4,15.2H1016V2424.7z M1035.4,2435.3l-3.4,9.4l-3.4-9.4H1035.4z M1029.9,2432.7l2.1-2.1l2.1,2.1H1029.9z M1038.3,2435.3h3.1
		l-6,7.9L1038.3,2435.3z M1037.9,2432.7l-2.7-2.7h4.1l2,2.7H1037.9z M1026.1,2432.7h-3.4l2-2.7h4.1L1026.1,2432.7z M1025.7,2435.3
		l2.9,7.9l-6-7.9H1025.7z M994.7,2452.7h74.7v2.7h-74.7V2452.7z M1060.5,2458l-9,8h-4.7c2.6-1.4,3.6-4.6,2.2-7.2
		c-0.1-0.3-0.3-0.5-0.5-0.8H1060.5z M1013.3,2490.8l-18.1-18.1l4.8-4.8l18.1,18.1L1013.3,2490.8z M1068.3,2463.7l-14.1,12.9H1028
		c-0.3,0-0.5,0.1-0.8,0.2l-8.4,6l-14.3-14.3l5.3-5.3h19.4c0.1,0,0.3,0,0.4-0.1l13.6-4.5c1.4-0.5,2.9,0.3,3.4,1.7
		c0.5,1.4-0.3,2.9-1.7,3.4c-0.1,0-0.1,0-0.2,0l-7.8,2.1h-3.8v2.7h18.7c0.3,0,0.6-0.1,0.9-0.3l10.7-9.5c0.6-0.5,1.4-0.8,2.2-0.8h0.3
		c1.8,0,3.3,1.5,3.3,3.3C1069.3,2462.2,1069,2463.1,1068.3,2463.7z"/>
	
		<rect x="999.3" y="2470.5" transform="matrix(0.7071 -0.7071 0.7071 0.7071 -1455.8171 1431.9999)" class="st0" width="2.7" height="5.7"/>
	<rect x="1054.7" y="2419.3" class="st0" width="2.7" height="2.7"/>
	<rect x="1057.3" y="2416.7" class="st0" width="2.7" height="2.7"/>
	<rect x="1060" y="2419.3" class="st0" width="2.7" height="2.7"/>
	<rect x="1057.3" y="2422" class="st0" width="2.7" height="2.7"/>
	<rect x="1069.3" y="2415.3" class="st0" width="2.7" height="2.7"/>
	<rect x="1058.7" y="2430" class="st0" width="2.7" height="2.7"/>
	<rect x="1004" y="2428.7" class="st0" width="2.7" height="2.7"/>
	<rect x="1004" y="2434" class="st0" width="2.7" height="2.7"/>
	<rect x="1006.7" y="2431.3" class="st0" width="2.7" height="2.7"/>
	<rect x="1001.3" y="2431.3" class="st0" width="2.7" height="2.7"/>
	<rect x="992" y="2422" class="st0" width="2.7" height="2.7"/>
	<rect x="1004" y="2415.3" class="st0" width="2.7" height="2.7"/>
</g>
<g>
	<path class="st0" d="M47.6,66.5c-0.1-0.6-0.7-1.1-1.3-1.1h-2.7c-0.6,0-1.2,0.4-1.3,1.1l-2.7,13.3c-0.1,0.4,0.1,0.9,0.4,1.2l4,4
		c0.5,0.5,1.4,0.5,1.9,0l4-4c0.3-0.3,0.5-0.8,0.4-1.2L47.6,66.5z M45,82.2l-2.6-2.6l2.3-11.6h0.5l2.3,11.6L45,82.2z"/>
	<path class="st0" d="M78.3,64.1c-2.1,0-3.9-1.7-4-3.8c6.7-2.9,9.8-10.8,6.9-17.5c-2.9-6.7-10.8-9.8-17.5-6.9
		c-2.9,1.3-5.3,3.6-6.7,6.4c-3.2-6.6-11.1-9.4-17.7-6.3c-2.7,1.3-4.9,3.5-6.3,6.3c-3.2-6.6-11.1-9.4-17.8-6.2S5.8,47.2,9,53.9
		c1.4,2.9,3.7,5.2,6.7,6.4c-0.1,2.1-1.9,3.8-4,3.8c-3.7,0-6.7,3-6.7,6.7v14.7h2.7V70.8c0-2.2,1.8-4,4-4c3.3,0,6.1-2.4,6.6-5.6
		c1.8,0.4,3.7,0.4,5.5,0c0,1.5,0.7,2.9,1.7,3.9l1.8-2c-0.7-0.8-1-1.8-0.9-2.8c2.9-1.3,5.3-3.6,6.7-6.4c1.4,2.9,3.7,5.1,6.6,6.4
		c-0.1,2.1-1.9,3.8-4,3.8c-3.7,0-6.7,3-6.7,6.7v14.7h2.7V70.8c0-2.2,1.8-4,4-4c3.3,0,6.1-2.4,6.6-5.6c1.8,0.4,3.7,0.4,5.5,0
		c0.5,3.2,3.3,5.6,6.6,5.6c2.2,0,4,1.8,4,4v14.7H61V70.8c0-3.7-3-6.7-6.7-6.7c-2.1,0-3.9-1.7-4-3.8c2.9-1.3,5.3-3.6,6.6-6.4
		c1.4,2.9,3.7,5.1,6.6,6.4c0,1-0.4,2.1-1,2.9l2,1.8c0.9-1.1,1.4-2.4,1.6-3.8c1.8,0.4,3.7,0.4,5.5,0c0.5,3.2,3.3,5.6,6.6,5.6
		c2.2,0,4,1.8,4,4v14.7H85V70.8C85,67.1,82,64.1,78.3,64.1z M69,37.4c5.4,0,9.9,4,10.6,9.3h-1.9l-2.3-3.4c-0.2-0.4-0.7-0.6-1.1-0.6
		H63.7c-0.4,0-0.9,0.2-1.1,0.6l-2.3,3.4h-1.9C59.1,41.4,63.6,37.4,69,37.4z M45,37.4c5.4,0,9.9,4,10.6,9.3h-8.8l-3.7-2.4
		c-0.4-0.3-1-0.3-1.5,0l-3.7,2.4h-3.5C35.1,41.4,39.6,37.4,45,37.4z M21,37.4c5.4,0,9.9,4,10.6,9.3h-8.9l-5.1-2.5
		c-0.5-0.3-1.1-0.2-1.5,0.3l-2.3,2.3h-3.4C11.1,41.4,15.6,37.4,21,37.4z M21,58.8c-5.4,0-9.9-4-10.6-9.3h3.9c0.4,0,0.7-0.1,0.9-0.4
		l2-2l4.5,2.2c0.2,0.1,0.4,0.1,0.6,0.1h9.2C30.9,54.8,26.4,58.8,21,58.8z M45,58.8c-5.4,0-9.9-4-10.6-9.3h3.9c0.3,0,0.5-0.1,0.7-0.2
		l3.3-2.2l3.3,2.2c0.2,0.1,0.5,0.2,0.7,0.2h9.2C54.9,54.8,50.4,58.8,45,58.8z M58.4,49.4H61c0.4,0,0.9-0.2,1.1-0.6l2.3-3.4h9.2
		l2.3,3.4c0.2,0.4,0.7,0.6,1.1,0.6h2.6c-0.7,5.8-6.1,10-11.9,9.2C62.8,58.1,59,54.3,58.4,49.4z"/>
	<path class="st0" d="M19.4,28.1l0.6,2.6l17.3-4c0.6-0.1,1-0.7,1-1.3V14.8c0-0.7-0.6-1.3-1.3-1.3h-3.1L45,7l11.1,6.5H53
		c-0.7,0-1.3,0.6-1.3,1.3v10.7c0,0.6,0.4,1.2,1,1.3l17.3,4l0.6-2.6l-16.3-3.8v-8.3H61c0.7,0,1.3-0.6,1.3-1.3c0-0.5-0.3-0.9-0.7-1.1
		l-16-9.3c-0.4-0.2-0.9-0.2-1.3,0l-16,9.3c-0.6,0.4-0.9,1.2-0.5,1.8c0.2,0.4,0.7,0.7,1.2,0.7h6.7v8.3L19.4,28.1z"/>
	<path class="st0" d="M43.7,28.5l-3.1,1l0.8,2.5l4-1.3c0.5-0.2,0.9-0.7,0.9-1.3v-16h-2.7V28.5z"/>
	<rect x="32.9" y="31.4" transform="matrix(0.9486 -0.3165 0.3165 0.9486 -8.5705 12.7632)" class="st0" width="4.2" height="2.7"/>
	<rect x="53.7" y="27.2" transform="matrix(0.2747 -0.9615 0.9615 0.2747 9.031 76.162)" class="st0" width="2.7" height="9.7"/>
	<path class="st0" d="M23.6,66.5c-0.1-0.6-0.7-1.1-1.3-1.1h-2.7c-0.6,0-1.2,0.4-1.3,1.1l-2.7,13.3c-0.1,0.4,0.1,0.9,0.4,1.2l4,4
		c0.5,0.5,1.4,0.5,1.9,0l4-4c0.3-0.3,0.5-0.8,0.4-1.2L23.6,66.5z M21,82.2l-2.6-2.6l2.3-11.6h0.5l2.3,11.6L21,82.2z"/>
	<path class="st0" d="M71.6,66.5c-0.1-0.6-0.7-1.1-1.3-1.1h-2.7c-0.6,0-1.2,0.4-1.3,1.1l-2.7,13.3c-0.1,0.4,0.1,0.9,0.4,1.2l4,4
		c0.5,0.5,1.4,0.5,1.9,0l4-4c0.3-0.3,0.5-0.8,0.4-1.2L71.6,66.5z M69,82.2l-2.6-2.6l2.3-11.6h0.5l2.3,11.6L69,82.2z"/>
	<g>
		<path class="st0" d="M47.6,66.5c-0.1-0.6-0.7-1.1-1.3-1.1h-2.7c-0.6,0-1.2,0.4-1.3,1.1l-2.7,13.3c-0.1,0.4,0.1,0.9,0.4,1.2l4,4
			c0.5,0.5,1.4,0.5,1.9,0l4-4c0.3-0.3,0.5-0.8,0.4-1.2L47.6,66.5z M45,82.2l-2.6-2.6l2.3-11.6h0.5l2.3,11.6L45,82.2z"/>
		<path class="st0" d="M78.3,64.1c-2.1,0-3.9-1.7-4-3.8c6.7-2.9,9.8-10.8,6.9-17.5c-2.9-6.7-10.8-9.8-17.5-6.9
			c-2.9,1.3-5.3,3.6-6.7,6.4c-3.2-6.6-11.1-9.4-17.7-6.3c-2.7,1.3-4.9,3.5-6.3,6.3c-3.2-6.6-11.1-9.4-17.8-6.2S5.8,47.2,9,53.9
			c1.4,2.9,3.7,5.2,6.7,6.4c-0.1,2.1-1.9,3.8-4,3.8c-3.7,0-6.7,3-6.7,6.7v14.7h2.7V70.8c0-2.2,1.8-4,4-4c3.3,0,6.1-2.4,6.6-5.6
			c1.8,0.4,3.7,0.4,5.5,0c0,1.5,0.7,2.9,1.7,3.9l1.8-2c-0.7-0.8-1-1.8-0.9-2.8c2.9-1.3,5.3-3.6,6.7-6.4c1.4,2.9,3.7,5.1,6.6,6.4
			c-0.1,2.1-1.9,3.8-4,3.8c-3.7,0-6.7,3-6.7,6.7v14.7h2.7V70.8c0-2.2,1.8-4,4-4c3.3,0,6.1-2.4,6.6-5.6c1.8,0.4,3.7,0.4,5.5,0
			c0.5,3.2,3.3,5.6,6.6,5.6c2.2,0,4,1.8,4,4v14.7H61V70.8c0-3.7-3-6.7-6.7-6.7c-2.1,0-3.9-1.7-4-3.8c2.9-1.3,5.3-3.6,6.6-6.4
			c1.4,2.9,3.7,5.1,6.6,6.4c0,1-0.4,2.1-1,2.9l2,1.8c0.9-1.1,1.4-2.4,1.6-3.8c1.8,0.4,3.7,0.4,5.5,0c0.5,3.2,3.3,5.6,6.6,5.6
			c2.2,0,4,1.8,4,4v14.7H85V70.8C85,67.1,82,64.1,78.3,64.1z M69,37.4c5.4,0,9.9,4,10.6,9.3h-1.9l-2.3-3.4c-0.2-0.4-0.7-0.6-1.1-0.6
			H63.7c-0.4,0-0.9,0.2-1.1,0.6l-2.3,3.4h-1.9C59.1,41.4,63.6,37.4,69,37.4z M45,37.4c5.4,0,9.9,4,10.6,9.3h-8.8l-3.7-2.4
			c-0.4-0.3-1-0.3-1.5,0l-3.7,2.4h-3.5C35.1,41.4,39.6,37.4,45,37.4z M21,37.4c5.4,0,9.9,4,10.6,9.3h-8.9l-5.1-2.5
			c-0.5-0.3-1.1-0.2-1.5,0.3l-2.3,2.3h-3.4C11.1,41.4,15.6,37.4,21,37.4z M21,58.8c-5.4,0-9.9-4-10.6-9.3h3.9c0.4,0,0.7-0.1,0.9-0.4
			l2-2l4.5,2.2c0.2,0.1,0.4,0.1,0.6,0.1h9.2C30.9,54.8,26.4,58.8,21,58.8z M45,58.8c-5.4,0-9.9-4-10.6-9.3h3.9
			c0.3,0,0.5-0.1,0.7-0.2l3.3-2.2l3.3,2.2c0.2,0.1,0.5,0.2,0.7,0.2h9.2C54.9,54.8,50.4,58.8,45,58.8z M58.4,49.4H61
			c0.4,0,0.9-0.2,1.1-0.6l2.3-3.4h9.2l2.3,3.4c0.2,0.4,0.7,0.6,1.1,0.6h2.6c-0.7,5.8-6.1,10-11.9,9.2C62.8,58.1,59,54.3,58.4,49.4z"
			/>
		<path class="st0" d="M23.6,66.5c-0.1-0.6-0.7-1.1-1.3-1.1h-2.7c-0.6,0-1.2,0.4-1.3,1.1l-2.7,13.3c-0.1,0.4,0.1,0.9,0.4,1.2l4,4
			c0.5,0.5,1.4,0.5,1.9,0l4-4c0.3-0.3,0.5-0.8,0.4-1.2L23.6,66.5z M21,82.2l-2.6-2.6l2.3-11.6h0.5l2.3,11.6L21,82.2z"/>
		<path class="st0" d="M71.6,66.5c-0.1-0.6-0.7-1.1-1.3-1.1h-2.7c-0.6,0-1.2,0.4-1.3,1.1l-2.7,13.3c-0.1,0.4,0.1,0.9,0.4,1.2l4,4
			c0.5,0.5,1.4,0.5,1.9,0l4-4c0.3-0.3,0.5-0.8,0.4-1.2L71.6,66.5z M69,82.2l-2.6-2.6l2.3-11.6h0.5l2.3,11.6L69,82.2z"/>
	</g>
</g>
</svg>
