<?xml version="1.0" encoding="utf-8"?>
<!-- Generator: Adobe Illustrator 22.1.0, SVG Export Plug-In . SVG Version: 6.00 Build 0)  -->
<svg version="1.1" id="Слой_1" xmlns="http://www.w3.org/2000/svg" xmlns:xlink="http://www.w3.org/1999/xlink" x="0px" y="0px"
	 viewBox="0 0 90 90" style="enable-background:new 0 0 90 90;" xml:space="preserve">
<style type="text/css">
	.st0{fill:#C49A6C;}
</style>
<g>
	<path class="st0" d="M83.9,26.2l-5.2-0.7c-0.7-0.1-1.2-0.8-1.1-1.5c0-0.3,0.2-0.7,0.5-0.9l4.2-3.1c0.6-0.4,0.7-1.3,0.3-1.9
		l-4.8-6.4c-0.4-0.6-1.3-0.7-1.9-0.3v0l-4.2,3.1c-0.6,0.4-1.4,0.3-1.9-0.3c-0.2-0.3-0.3-0.6-0.3-1l0.7-5.2c0.1-0.7-0.4-1.4-1.1-1.5
		c0,0,0,0,0,0l-7.9-1.1c-0.7-0.1-1.4,0.4-1.5,1.1c0,0,0,0,0,0l-0.7,5.2c-0.1,0.7-0.8,1.2-1.5,1.1c-0.3,0-0.7-0.2-0.9-0.5l-3.1-4.2
		c-0.4-0.6-1.3-0.7-1.9-0.3v0l-4,3c-1.8-0.2-3.6-0.2-5.4,0c-11.8,1.4-21.1,10.8-22.2,22.6c0,0.4,0,0.7-0.1,1.1h-0.4
		c-0.6,0-1.2,0.4-1.3,1.1l-0.9,4.4l-3.7-2.5c-0.5-0.4-1.2-0.3-1.7,0.2l-4,4c-0.5,0.5-0.5,1.2-0.2,1.7l2.5,3.7L6,48
		c-0.6,0.1-1,0.7-1,1.3v5.3c0,0.6,0.4,1.2,1.1,1.3l4.4,0.9l-2.5,3.7C7.5,61,7.6,61.7,8,62.2l4,4c0.5,0.5,1.2,0.5,1.7,0.2l3.7-2.5
		l0.9,4.4c0.1,0.6,0.7,1.1,1.3,1.1h5.3c0.6,0,1.2-0.4,1.3-1.1l0.9-4.4l3.7,2.5c0.5,0.4,1.2,0.3,1.7-0.2l2.1-2.1v3.8
		c0,1.9,1,3.6,2.7,4.6v7.4c0,2.9,2.4,5.3,5.3,5.3h5.3c2.9,0,5.3-2.4,5.3-5.3v-7.4c1.6-0.9,2.6-2.7,2.7-4.6v-5.3
		c0-2.2,1.2-4.3,3.1-5.4c1.1-0.7,2.1-1.5,3.1-2.4l-1.8-2c-0.9,0.8-1.8,1.5-2.8,2.1c-2.6,1.7-4.2,4.5-4.3,7.6v5.3
		c0,1.5-1.2,2.7-2.7,2.7H39.9c-1.5,0-2.7-1.2-2.7-2.7v-5.4c0-3.1-1.6-5.9-4.2-7.5c-10.5-6.6-13.7-20.5-7.1-31
		c4.1-6.5,11.3-10.5,19-10.5c0,0,0,0.1-0.1,0.1c0,0.3,0,0.7,0.3,1l3.1,4.2c0.3,0.4,0.4,1,0.1,1.5C48,20.7,47.5,21,47,20.9l-5.2-0.7
		c-0.7-0.1-1.4,0.4-1.5,1.1c0,0,0,0,0,0l-1.1,7.9c-0.1,0.7,0.4,1.4,1.1,1.5c0,0,0,0,0,0l5.2,0.7c0.7,0.1,1.2,0.8,1.1,1.5
		c0,0.3-0.2,0.7-0.5,0.9l-4.2,3.1c-0.6,0.4-0.7,1.3-0.3,1.9l4.8,6.4c0.4,0.6,1.3,0.7,1.9,0.3l0,0l4.2-3.1c0.6-0.4,1.4-0.3,1.9,0.3
		c0.2,0.3,0.3,0.6,0.3,1l-0.7,5.2c-0.1,0.7,0.4,1.4,1.1,1.5c0,0,0,0,0,0l7.9,1.1c0.1,0,0.1,0,0.2,0c0.7,0,1.2-0.5,1.3-1.1l0.7-5.2
		c0.1-0.7,0.8-1.2,1.5-1.1c0.3,0,0.7,0.2,0.9,0.5l3.1,4.2c0.4,0.6,1.3,0.7,1.9,0.3l0,0l6.4-4.8c0.6-0.4,0.7-1.3,0.3-1.9l-3.1-4.2
		c-0.3-0.4-0.4-1-0.1-1.5c0.3-0.5,0.8-0.7,1.3-0.6l5.2,0.7c0.7,0.1,1.4-0.4,1.5-1.1c0,0,0,0,0,0l1.1-7.9
		C85.1,26.9,84.6,26.3,83.9,26.2C83.9,26.2,83.9,26.2,83.9,26.2L83.9,26.2z M22.3,46.7c1.2,2.6,2.9,5,4.9,7.1c-1,2.8-4,4.2-6.8,3.2
		s-4.2-4-3.2-6.8C18,48.1,20,46.6,22.3,46.7C22.3,46.7,22.3,46.7,22.3,46.7z M47.8,82.5h-5.3c-1.5,0-2.7-1.2-2.7-2.7v-1.3h10.6v1.3
		C50.5,81.3,49.3,82.5,47.8,82.5z M50.5,73.2v2.7H39.9v-2.7H50.5z M34.2,60.7l-2.8,2.8l-2.8-1.9c-1.2-0.8-2.9-0.5-3.7,0.7
		c-0.2,0.3-0.3,0.6-0.4,1l-0.7,3.3h-3.2L20,63.3c-0.3-1.4-1.7-2.4-3.1-2.1c-0.3,0.1-0.7,0.2-1,0.4l-2.8,1.9l-2.4-2.4l1.9-2.8
		c0.8-1.2,0.5-2.9-0.7-3.7c-0.3-0.2-0.6-0.3-1-0.4l-3.3-0.7v-3.2l3.3-0.7c1.4-0.3,2.4-1.7,2-3.1c-0.1-0.3-0.2-0.7-0.4-0.9l-1.9-2.8
		l2.4-2.4l2.8,1.9c1.2,0.8,2.9,0.5,3.7-0.7c0.2-0.3,0.3-0.6,0.4-1l0.2-1.1c0.2,1.5,0.6,3,1.1,4.5c-4.4,0.5-7.5,4.5-7,8.9
		c0.5,4.4,4.5,7.5,8.9,7c2.6-0.3,4.9-1.9,6.1-4.3c0.7,0.6,1.5,1.1,2.3,1.7C32.8,58.1,33.8,59.3,34.2,60.7z M81.4,33.9l-3.8-0.5
		c-2.2-0.3-4.2,1.2-4.5,3.4c-0.1,1,0.1,2.1,0.8,3l2.3,3.1l-4.2,3.2l-2.3-3.1c-1.3-1.8-3.8-2.1-5.6-0.8c-0.8,0.6-1.4,1.6-1.6,2.6
		l-0.5,3.9l-5.3-0.8l0.5-3.8c0.3-2.2-1.2-4.2-3.4-4.5c-1-0.1-2.1,0.1-3,0.8l-3.1,2.3l-3.2-4.2l3.1-2.3c1.8-1.3,2.1-3.8,0.8-5.6
		c-0.6-0.8-1.6-1.4-2.6-1.6L42,28.2l0.8-5.3l3.8,0.5c2.2,0.3,4.2-1.2,4.5-3.4c0.1-1-0.1-2.1-0.8-3L48,14.1l4.2-3.2l2.3,3.1
		c1.3,1.8,3.8,2.1,5.6,0.8c0.8-0.6,1.4-1.6,1.6-2.6l0.5-3.8l5.3,0.8L67,12.9c-0.3,2.2,1.2,4.2,3.4,4.5c1,0.1,2.1-0.1,3-0.8l3.1-2.3
		l3.2,4.2l-3.1,2.3c-1.8,1.3-2.1,3.8-0.8,5.6c0.6,0.8,1.6,1.4,2.6,1.6l3.8,0.5L81.4,33.9z"/>
	<path class="st0" d="M62.1,17.8c-5.9,0-10.6,4.8-10.6,10.6S56.2,39,62.1,39s10.6-4.8,10.6-10.6C72.7,22.6,67.9,17.8,62.1,17.8z
		 M62.1,36.4c-4.4,0-8-3.6-8-8s3.6-8,8-8s8,3.6,8,8C70,32.8,66.5,36.4,62.1,36.4z"/>
	<rect x="43.8" y="63.9" class="st0" width="2.7" height="4"/>
	<path class="st0" d="M39.4,50.9c-8.2-3.2-12.2-12.4-9-20.6c1.2-3.2,3.5-5.9,6.4-7.7l-1.4-2.2c-8.7,5.5-11.3,16.9-5.8,25.6
		c2.1,3.4,5.3,6,9,7.4c3.3,1.3,5.4,4.4,5.4,7.9h2.7C46.5,56.6,43.7,52.5,39.4,50.9z"/>
	<rect x="70.4" y="54.6" class="st0" width="9.3" height="2.7"/>
	<rect x="71.7" y="60.7" transform="matrix(0.6401 -0.7683 0.7683 0.6401 -24.34 79.8398)" class="st0" width="2.7" height="10.4"/>
	<rect x="62.4" y="65.2" class="st0" width="2.7" height="9.3"/>
	<rect x="6.5" y="26.7" transform="matrix(0.9701 -0.2425 0.2425 0.9701 -6.4492 3.7453)" class="st0" width="10.9" height="2.7"/>
	
		<rect x="12.7" y="11.1" transform="matrix(0.5812 -0.8137 0.8137 0.5812 -7.8052 18.4033)" class="st0" width="2.7" height="11.4"/>
	<rect x="21.3" y="5.3" transform="matrix(0.9688 -0.2477 0.2477 0.9688 -1.9737 5.9285)" class="st0" width="2.7" height="11"/>
</g>
</svg>
